ply
format ascii 1.0
comment VCGLIB generated
element vertex 289
property float x
property float y
property float z
property float nx
property float ny
property float nz
property int flags
element face 590
property list uchar int vertex_indices
property int flags
end_header
-4.755282 -1.545085 -6.8 2.951047 0.9588534 -3.455751 0 
-5 0 -6.8 3.102914 1.862645e-08 -3.455752 0 
-5 0 0 3.102914 -1.490116e-08 3.455752 0 
-4.045085 -2.938926 -6.8 2.510311 1.823847 -3.455752 0 
-4.755282 -1.545085 0 2.951047 0.9588534 3.455752 0 
-2.938926 -4.045085 -6.8 1.823847 2.510311 -3.455752 0 
-4.045085 -2.938926 0 2.510311 1.823847 3.455752 0 
-1.545085 -4.755282 -6.8 0.9588534 2.951047 -3.455752 0 
-2.938926 -4.045085 0 1.823847 2.510311 3.455752 0 
0 -5 -6.8 -1.862645e-08 3.102914 -3.455752 0 
-1.545085 -4.755282 0 0.9588534 2.951047 3.455752 0 
1.545085 -4.755282 -6.8 -0.9588534 2.951047 -3.455752 0 
0 -5 0 1.490116e-08 3.102914 3.455752 0 
2.938926 -4.045085 -6.8 -1.823847 2.510311 -3.455752 0 
1.545085 -4.755282 0 -0.9588534 2.951047 3.455752 0 
4.045085 -2.938926 -6.8 -2.510311 1.823847 -3.455752 0 
2.938926 -4.045085 0 -1.823847 2.510311 3.455752 0 
4.755282 -1.545085 -6.8 -2.951047 0.9588534 -3.455752 0 
4.045085 -2.938926 0 -2.510311 1.823847 3.455749 0 
5 0 -6.8 -3.102914 -1.862645e-08 -3.455752 0 
4.755282 -1.545085 0 -2.951047 0.9588534 3.455752 0 
4.755282 1.545085 -6.8 -2.951047 -0.9588534 -3.455752 0 
5 0 0 -3.102914 1.490116e-08 3.455752 0 
4.045085 2.938926 -6.8 -2.510311 -1.823847 -3.455752 0 
4.755282 1.545085 0 -2.951047 -0.9588534 3.455752 0 
2.938926 4.045085 -6.8 -1.823847 -2.510311 -3.455752 0 
4.045085 2.938926 0 -2.510311 -1.823847 3.455752 0 
1.545085 4.755282 -6.8 -0.9588534 -2.951047 -3.455752 0 
2.938926 4.045085 0 -1.823847 -2.510311 3.455752 0 
0 5 -6.8 1.862645e-08 -3.102914 -3.455752 0 
1.545085 4.755282 0 -0.9588534 -2.951047 3.455752 0 
-1.545085 4.755282 -6.8 0.9588534 -2.951047 -3.455752 0 
0 5 0 -1.490116e-08 -3.102914 3.455751 0 
-2.938926 4.045085 -6.8 1.823847 -2.510311 -3.455752 0 
-1.545085 4.755282 0 0.9588534 -2.951047 3.455752 0 
-4.045085 2.938926 -6.8 2.510311 -1.823847 -3.455752 0 
-2.938926 4.045085 0 1.823847 -2.510311 3.455752 0 
-4.755282 1.545085 -6.8 2.951047 -0.9588534 -3.455752 0 
-4.045085 2.938926 0 2.510311 -1.823847 3.455752 0 
-4.755282 1.545085 0 2.951047 -0.9588534 3.455752 0 
4.647232 8.85456 -6.8 -1.449326 -2.76146 -2.899932 0 
2.393157 9.709418 -6.8 -0.7463509 -3.028063 -2.899931 0 
6.631227 7.485107 -6.8 -2.068072 -2.334371 -2.899931 0 
8.229838 5.680647 -6.8 -2.566629 -1.771616 -2.899932 0 
-24.04509 2.938926 -6.8 2.51031 -1.823847 -3.455751 0 
-27.92705 10.14683 -6.8 -0.9588544 -2.951046 -3.455753 0 
-27 10 -6.8 -0.2457267 -3.122254 -3.298672 0 
0 10 -6.8 -0.1893385 -3.13014 -3.020762 0 
9.350163 3.546049 -6.8 -2.916023 -1.105902 -2.899931 0 
9.927089 1.205367 -6.8 -3.095948 -0.3759161 -2.899932 0 
4.647232 -8.85456 -6.8 -1.449326 2.76146 -2.899932 0 
2.393157 -9.709418 -6.8 -0.7463509 3.028063 -2.899931 0 
0 -10 -6.8 -0.1893385 3.13014 -3.020762 0 
-15.95492 -2.938926 -6.8 -2.510311 1.823847 -3.455752 0 
-28.76336 10.57295 -6.8 -1.823847 -2.510312 -3.455749 0 
-18.45491 4.755282 -6.8 -0.9588534 -2.951047 -3.455752 0 
-15 0 -6.8 -3.102914 -1.862645e-08 -3.455752 0 
6.631227 -7.485107 -6.8 -2.068072 2.334371 -2.899931 0 
-21.54509 4.755282 -6.8 0.9588534 -2.951047 -3.455752 0 
-22.93893 4.045085 -6.8 1.823847 -2.510311 -3.455751 0 
-17.06107 4.045085 -6.8 -1.823848 -2.51031 -3.455752 0 
-15.24472 1.545085 -6.8 -2.951047 -0.9588534 -3.455752 0 
-15.95492 2.938926 -6.8 -2.510311 -1.823847 -3.455752 0 
9.350163 -3.546049 -6.8 -2.916023 1.105902 -2.899931 0 
8.229838 -5.680647 -6.8 -2.566629 1.771616 -2.899932 0 
-15.24472 -1.545085 -6.8 -2.951047 0.9588534 -3.455752 0 
-24.04509 -2.938926 -6.8 2.51031 1.823848 -3.455751 0 
-22.93893 -4.045085 -6.8 1.823847 2.510311 -3.455751 0 
-27 -10 -6.8 -0.2457267 3.122254 -3.298672 0 
-24.75528 1.545085 -6.8 2.951047 -0.9588525 -3.455775 0 
-29.85317 12.07295 -6.8 -2.951047 -0.9588518 -3.455757 0 
-29.42705 11.23664 -6.8 -2.510309 -1.823849 -3.455754 0 
9.927089 -1.205367 -6.8 -3.095948 0.3759161 -2.899932 0 
-27.92705 -10.14683 -6.8 -0.9588544 2.951046 -3.455753 0 
-25 0 -6.8 3.102915 1.862645e-08 -3.455748 0 
-20 5 -6.8 -1.862645e-08 -3.102914 -3.455752 0 
-18.45491 -4.755282 -6.8 -0.9588534 2.951047 -3.455752 0 
-17.06107 -4.045085 -6.8 -1.823848 2.51031 -3.455752 0 
-20 -5 -6.8 1.862645e-08 3.102914 -3.455752 0 
-28.76336 -10.57295 -6.8 -1.823847 2.510312 -3.455749 0 
-24.75528 -1.545085 -6.8 2.951047 0.9588525 -3.455752 0 
-29.85317 -12.07295 -6.8 -2.951047 0.9588519 -3.455752 0 
-21.54509 -4.755282 -6.8 0.9588534 2.951047 -3.455752 0 
-29.42705 -11.23664 -6.8 -2.510309 1.823849 -3.455753 0 
-30 -13 -6.8 -6.263846 0.2457254 -0.1570821 0 
-30 13 -6.8 -6.263846 -0.2457254 -0.1570787 0 
-25 0 0 3.102915 -1.490116e-08 3.455751 0 
-24.75528 -1.545085 0 2.951047 0.9588525 3.455752 0 
-24.04509 -2.938926 0 2.51031 1.823847 3.455752 0 
-22.93893 -4.045085 0 1.823847 2.510311 3.455752 0 
-21.54509 -4.755282 0 0.9588534 2.951047 3.455749 0 
-20 -5 0 -1.490116e-08 3.102914 3.455752 0 
-18.45491 -4.755282 0 -0.9588534 2.951047 3.455752 0 
-17.06107 -4.045085 0 -1.823848 2.51031 3.455752 0 
-15.95492 -2.938926 0 -2.510311 1.823847 3.455751 0 
-15.24472 -1.545085 0 -2.951047 0.9588534 3.455752 0 
-15 0 0 -3.102914 1.490116e-08 3.455754 0 
-15.24472 1.545085 0 -2.951047 -0.9588534 3.455752 0 
-15.95492 2.938926 0 -2.510311 -1.823847 3.455742 0 
-17.06107 4.045085 0 -1.823848 -2.51031 3.455752 0 
-18.45491 4.755282 0 -0.9588534 -2.951047 3.455752 0 
-20 5 0 1.490116e-08 -3.102914 3.455752 0 
-21.54509 4.755282 0 0.9588534 -2.951047 3.455749 0 
-22.93893 4.045085 0 1.823847 -2.510311 3.455752 0 
-24.04509 2.938926 0 2.51031 -1.823848 3.455752 0 
-24.75528 1.545085 0 2.951047 -0.9588524 3.455752 0 
2.393157 -9.709418 -12.7 -0.7463508 3.028063 -3.383254 0 
0 -10 -12.7 -0.1893385 3.13014 -3.262424 0 
4.647232 -8.85456 -12.7 -1.449326 2.76146 -3.383253 0 
6.631227 -7.485107 -12.7 -2.068072 2.334371 -3.383254 0 
8.229838 -5.680647 -12.7 -2.566629 1.771616 -3.383254 0 
9.350163 -3.546049 -12.7 -2.916023 1.105902 -3.383253 0 
9.927089 -1.205367 -12.7 -3.095948 0.3759161 -3.383255 0 
9.927089 1.205367 -12.7 -3.095948 -0.3759161 -3.383254 0 
9.350163 3.546049 -12.7 -2.916023 -1.105902 -3.383254 0 
8.229838 5.680647 -12.7 -2.566629 -1.771616 -3.383254 0 
6.631227 7.485107 -12.7 -2.068072 -2.334371 -3.383254 0 
4.647232 8.85456 -12.7 -1.449326 -2.76146 -3.383254 0 
2.393157 9.709418 -12.7 -0.7463509 -3.028064 -3.383254 0 
0 10 -12.7 -0.1893385 -3.13014 -3.262424 0 
-27 -10 -12.7 -0.2457267 3.122254 -2.984512 0 
-27 10 -12.7 -0.2457267 -3.122254 -2.984513 0 
-30 -13 -12.7 -3.122254 0.2457254 -2.984514 0 
-29.85317 -12.07295 -12.7 -2.951047 0.9588518 -2.827433 0 
-29.42705 -11.23664 -12.7 -2.510309 1.823849 -2.827432 0 
-28.76336 -10.57295 -12.7 -1.823847 2.510312 -2.827435 0 
-27.92705 -10.14683 -12.7 -0.9588544 2.951046 -2.827432 0 
-30 13 -12.7 -3.122254 -0.2457254 -2.984514 0 
-29.85317 12.07295 -12.7 -2.951047 -0.9588519 -2.827433 0 
-29.42705 11.23664 -12.7 -2.510309 -1.823849 -2.827432 0 
-28.76336 10.57295 -12.7 -1.823847 -2.510312 -2.827435 0 
-27.92705 10.14683 -12.7 -0.9588544 -2.951046 -2.827432 0 
-30 16 0 -3.122254 0.2457252 2.984511 0 
-30 16 -12.7 -3.122254 0.2457252 -2.984514 0 
-30 -16 -12.7 -3.122254 -0.2457252 -2.984514 0 
-30 -16 0 -3.122254 -0.2457252 2.984511 0 
-27 19 0 -0.2457252 3.122254 2.984514 0 
-27 19 -12.7 -0.2457252 3.122254 -2.984512 0 
-27.92705 18.85317 -12.7 -0.9588529 2.951047 -2.827431 0 
-27.92705 18.85317 0 -0.9588531 2.951047 2.827432 0 
-28.76336 18.42705 -12.7 -1.823849 2.51031 -2.827434 0 
-28.76336 18.42705 0 -1.823849 2.51031 2.827434 0 
-29.42705 17.76336 -12.7 -2.51031 1.823849 -2.827434 0 
-29.42705 17.76336 0 -2.51031 1.823849 2.827434 0 
-29.85317 16.92705 -12.7 -2.951047 0.9588531 -2.827432 0 
-29.85317 16.92705 0 -2.951047 0.9588529 2.827432 0 
-29.85317 -16.92705 -12.7 -2.951047 -0.9588529 -2.827432 0 
-29.85317 -16.92705 0 -2.951047 -0.9588531 2.827432 0 
-29.42705 -17.76336 -12.7 -2.51031 -1.823849 -2.827435 0 
-29.42705 -17.76336 0 -2.51031 -1.823849 2.827434 0 
-28.76336 -18.42705 -12.7 -1.823849 -2.51031 -2.827434 0 
-28.76336 -18.42705 0 -1.823849 -2.51031 2.827434 0 
-27.92705 -18.85317 -12.7 -0.9588531 -2.951047 -2.827431 0 
-27.92705 -18.85317 0 -0.9588529 -2.951047 2.827432 0 
-27 -19 -12.7 -0.2457252 -3.122254 -2.984505 0 
-27 -19 0 -0.2457252 -3.122254 2.984514 0 
5.451507 17.5 0 2.606546 1.741638 3.010694 0 
21.32864 -19 0 0.2341152 -3.124048 2.991984 0 
4.974751 18.12132 0 2.202436 2.202437 2.879792 0 
22.2129 -18.86672 0 0.9156585 -2.96849 2.842393 0 
23.0186 -18.47872 0 1.749955 -2.566715 2.842395 0 
23.67413 -17.87047 0 2.428761 -1.936874 2.842391 0 
3.629888 18.89778 0 0.8061485 3.008584 2.879792 0 
2.85343 19 0 0.2050299 3.128154 3.010691 0 
4.35343 18.59808 0 1.557358 2.697423 2.879795 0 
24.12126 -17.09602 0 2.891763 -1.134932 2.842393 0 
24.25342 -15.33244 0 3.028618 0.6912597 2.842395 0 
23.92672 -14.5 0 2.822563 1.359272 2.991993 0 
24.32025 -16.22419 0 3.097817 -0.2321482 2.842394 0 
5.451507 17.5 -6.8 2.606546 1.741638 3.272491 0 
23.92672 -14.5 -6.8 2.822563 1.359272 3.291202 0 
21.32864 -19 -6.8 0.2341152 -6.265641 0.1495994 0 
22.2129 -18.86672 -6.8 0.9156587 -2.96849 3.440797 0 
23.0186 -18.47872 -6.8 1.749955 -2.566715 3.440795 0 
23.67413 -17.87047 -6.8 2.428761 -1.936874 3.440794 0 
24.12126 -17.09602 -6.8 2.891763 -1.134932 3.440792 0 
24.32025 -16.22419 -6.8 3.097817 -0.2321481 3.440792 0 
24.25342 -15.33244 -6.8 3.028618 0.6912597 3.44079 0 
4.974751 18.12132 -6.8 2.202436 2.202437 3.403393 0 
4.35343 18.59808 -6.8 1.557358 2.697423 3.403391 0 
3.629888 18.89778 -6.8 0.8061485 3.008584 3.403398 0 
2.85343 19 -6.8 0.2050298 6.269747 0.1308995 0 
21.32864 19 -12.7 0.2050295 3.128154 -3.010694 0 
21.32864 19 -6.8 0.2050295 3.128155 3.010675 0 
39.80385 -19 -12.7 0.2341152 -3.124048 -2.991993 0 
39.80385 -19 -6.8 0.2341151 -3.124048 2.991998 0 
23.92672 17.5 -6.8 2.606544 1.741639 3.01069 0 
23.92672 17.5 -12.7 2.606545 1.74164 -3.010693 0 
23.44996 18.12132 -12.7 2.202434 2.202439 -2.879793 0 
23.44996 18.12132 -6.8 2.202434 2.202438 2.879793 0 
22.82864 18.59808 -12.7 1.557358 2.697423 -2.879796 0 
22.82864 18.59808 -6.8 1.557359 2.697423 2.879796 0 
22.1051 18.89778 -12.7 0.8061489 3.008584 -2.879792 0 
22.1051 18.89778 -6.8 0.806149 3.008584 2.879792 0 
42.40192 -14.5 -12.7 2.822563 1.359272 -2.991987 0 
42.40192 -14.5 -6.8 2.822564 1.359272 2.991991 0 
40.68811 -18.86672 -12.7 0.9156586 -2.96849 -2.842393 0 
40.68811 -18.86672 -6.8 0.9156586 -2.96849 2.842393 0 
41.49381 -18.47872 -12.7 1.749956 -2.566713 -2.842394 0 
41.49381 -18.47872 -6.8 1.749957 -2.566713 2.842394 0 
42.14934 -17.87047 -12.7 2.428762 -1.936875 -2.842395 0 
42.14934 -17.87047 -6.8 2.428761 -1.936875 2.842395 0 
42.59647 -17.09602 -12.7 2.891762 -1.134934 -2.842391 0 
42.59647 -17.09602 -6.8 2.891762 -1.134934 2.842391 0 
42.79546 -16.22419 -12.7 3.097817 -0.2321448 -2.842391 0 
42.79546 -16.22419 -6.8 3.097817 -0.2321448 2.842391 0 
42.72863 -15.33244 -12.7 3.028618 0.6912631 -2.842397 0 
42.72863 -15.33244 -6.8 3.028618 0.6912631 2.842397 0 
18.25239 9.976792 -12.7 -0.9588516 2.951047 -3.45575 0 
19.15839 10.43842 -12.7 -1.823847 2.510309 -3.455754 0 
31.0155 -10.0987 -12.7 1.262068 -2.834653 -3.455752 0 
16.24378 9.976792 -12.7 0.9588528 2.951047 -3.455753 0 
30.16272 -10.6525 -12.7 2.076256 -2.305914 -3.455752 0 
17.24809 9.817726 -12.7 -5.960464e-08 3.102914 -3.455752 0 
13.99809 13.06773 -12.7 3.102914 -1.639128e-07 -3.455754 0 
19.87739 11.15742 -12.7 -2.510311 1.823848 -3.455752 0 
15.33778 10.43842 -12.7 1.823847 2.51031 -3.455752 0 
31.99768 -9.83553 -12.7 0.3243426 -3.085917 -3.455751 0 
29.52281 -11.44273 -12.7 2.687203 -1.551456 -3.45575 0 
14.15715 12.06342 -12.7 2.951046 0.958854 -3.455751 0 
14.61878 11.15742 -12.7 2.510311 1.823847 -3.455752 0 
33.01311 -9.888746 -12.7 -0.6451312 -3.035108 -3.455752 0 
17.24809 16.31773 -12.7 7.450581e-08 -3.102914 -3.455753 0 
16.24378 16.15866 -12.7 0.9588543 -2.951046 -3.455751 0 
19.87739 14.97803 -12.7 -2.51031 -1.823848 -3.455751 0 
29.0874 -13.06773 -12.7 3.130829 -0.08200561 -3.299709 0 
29.15842 -12.39201 -12.7 3.028656 -0.7271155 -3.403391 0 
34.75262 -10.89305 -12.7 -2.305913 -2.076257 -3.455753 0 
18.25239 16.15866 -12.7 -0.9588529 -2.951047 -3.45575 0 
19.15839 15.69703 -12.7 -1.823846 -2.510311 -3.455754 0 
20.49809 13.06773 -12.7 -3.102915 -3.129244e-07 -3.45575 0 
33.96239 -10.25314 -12.7 -1.551455 -2.687204 -3.455751 0 
35.51638 -13.74344 -12.7 -3.035107 0.645132 -3.455757 0 
31.66168 -16.24671 -12.7 0.6451336 3.035108 -3.455752 0 
29.1052 -13.40744 -12.7 3.085916 0.4887592 -3.351035 0 
20.33902 14.07203 -12.7 -2.951046 -0.9588532 -3.455754 0 
20.33902 12.06342 -12.7 -2.951046 0.9588534 -3.455755 0 
35.56959 -12.72801 -12.7 -3.085917 -0.3243431 -3.455749 0 
35.30642 -11.74583 -12.7 -2.834653 -1.262068 -3.455753 0 
35.15198 -14.69273 -12.7 -2.687201 1.551459 -3.455752 0 
32.67711 -16.29992 -12.7 -0.3243427 3.085916 -3.455753 0 
29.92217 -15.2424 -12.7 2.305915 2.076254 -3.455753 0 
30.7124 -15.88231 -12.7 1.551457 2.687203 -3.455751 0 
14.61878 14.97803 -12.7 2.51031 -1.823847 -3.455753 0 
14.15715 14.07203 -12.7 2.951047 -0.9588536 -3.45575 0 
15.33778 15.69703 -12.7 1.823846 -2.510311 -3.455751 0 
33.65929 -16.03675 -12.7 -1.26207 2.834652 -3.455753 0 
34.51207 -15.48295 -12.7 -2.076256 2.305914 -3.455751 0 
29.36837 -14.38962 -12.7 2.834654 1.262068 -3.45575 0 
29.36837 -14.38962 -6.8 2.834654 1.262068 3.455755 0 
19.15839 10.43842 -6.8 -1.823847 2.51031 3.455754 0 
18.25239 9.976792 -6.8 -0.9588514 2.951047 3.45577 0 
29.92217 -15.2424 -6.8 2.305915 2.076254 3.45575 0 
31.99768 -9.83553 -6.8 0.3243425 -3.085916 3.455751 0 
20.33902 14.07203 -6.8 -2.951046 -0.9588529 3.455754 0 
19.87739 14.97803 -6.8 -2.510311 -1.823848 3.455751 0 
17.24809 9.817726 -6.8 5.215406e-08 3.102914 3.455752 0 
16.24378 9.976792 -6.8 0.9588528 2.951047 3.455752 0 
33.96239 -10.25314 -6.8 -1.551455 -2.687204 3.455751 0 
34.75262 -10.89305 -6.8 -2.305913 -2.076257 3.455753 0 
31.0155 -10.0987 -6.8 1.262068 -2.834654 3.455753 0 
29.52281 -11.44273 -6.8 2.687203 -1.551457 3.45575 0 
30.16272 -10.6525 -6.8 2.076255 -2.305914 3.455752 0 
15.33778 10.43842 -6.8 1.823847 2.510311 3.455752 0 
14.61878 11.15742 -6.8 2.51031 1.823847 3.455752 0 
32.67711 -16.29992 -6.8 -0.3243425 3.085916 3.455753 0 
33.01311 -9.888746 -6.8 -0.6451313 -3.035109 3.455752 0 
16.24378 16.15866 -6.8 0.9588542 -2.951047 3.455751 0 
14.15715 14.07203 -6.8 2.951047 -0.9588537 3.455751 0 
14.61878 14.97803 -6.8 2.51031 -1.823847 3.455774 0 
14.15715 12.06342 -6.8 2.951047 0.958854 3.455751 0 
31.66168 -16.24671 -6.8 0.6451336 3.035108 3.455752 0 
35.30642 -11.74583 -6.8 -2.834653 -1.262067 3.455753 0 
19.87739 11.15742 -6.8 -2.510311 1.823848 3.455749 0 
30.7124 -15.88231 -6.8 1.551458 2.687203 3.455751 0 
33.65929 -16.03675 -6.8 -1.26207 2.834652 3.455753 0 
17.24809 16.31773 -6.8 -7.264316e-08 -3.102914 3.455753 0 
15.33778 15.69703 -6.8 1.823846 -2.510311 3.455751 0 
13.99809 13.06773 -6.8 3.102914 -3.222376e-07 3.455753 0 
35.51638 -13.74344 -6.8 -3.035107 0.6451322 3.455757 0 
19.15839 15.69703 -6.8 -1.823846 -2.51031 3.455754 0 
18.25239 16.15866 -6.8 -0.9588531 -2.951047 3.45575 0 
20.49809 13.06773 -6.8 -3.102915 -1.657754e-07 3.455761 0 
29.1052 -13.40744 -6.8 3.086202 0.3303562 3.446632 0 
35.15198 -14.69273 -6.8 -2.687201 1.551459 3.455752 0 
34.51207 -15.48295 -6.8 -2.076256 2.305914 3.455751 0 
29.15842 -12.39201 -6.8 3.034768 -0.6511239 3.446975 0 
20.33902 12.06342 -6.8 -2.951046 0.9588536 3.455754 0 
35.56959 -12.72801 -6.8 -3.085917 -0.324343 3.455749 0 
3 0 1 2 0 
3 3 0 4 0 
3 5 3 6 0 
3 7 5 8 0 
3 9 7 10 0 
3 11 9 12 0 
3 13 11 14 0 
3 15 13 16 0 
3 17 15 18 0 
3 19 17 20 0 
3 21 19 22 0 
3 23 21 24 0 
3 25 23 26 0 
3 27 25 28 0 
3 29 27 30 0 
3 31 29 32 0 
3 33 31 34 0 
3 35 33 36 0 
3 37 35 38 0 
3 1 37 39 0 
3 39 2 1 0 
3 38 39 37 0 
3 36 38 35 0 
3 34 36 33 0 
3 32 34 31 0 
3 30 32 29 0 
3 28 30 27 0 
3 26 28 25 0 
3 24 26 23 0 
3 22 24 21 0 
3 20 22 19 0 
3 18 20 17 0 
3 16 18 15 0 
3 14 16 13 0 
3 12 14 11 0 
3 10 12 9 0 
3 8 10 7 0 
3 6 8 5 0 
3 4 6 3 0 
3 2 4 0 0 
3 40 25 27 0 
3 41 27 29 0 
3 27 41 40 0 
3 42 43 23 0 
3 44 45 46 0 
3 29 47 41 0 
3 23 25 42 0 
3 48 21 23 0 
3 49 19 21 0 
3 50 51 11 0 
3 52 53 5 0 
3 44 54 45 0 
3 46 47 55 0 
3 37 1 56 0 
3 47 31 33 0 
3 40 42 25 0 
3 21 48 49 0 
3 13 57 50 0 
3 51 52 9 0 
3 53 3 5 0 
3 46 58 59 0 
3 47 60 55 0 
3 56 61 37 0 
3 33 62 47 0 
3 23 43 48 0 
3 63 64 15 0 
3 57 13 15 0 
3 9 11 51 0 
3 5 7 52 0 
3 65 56 1 0 
3 66 67 68 0 
3 46 59 44 0 
3 69 70 71 0 
3 47 62 60 0 
3 62 35 37 0 
3 29 31 47 0 
3 72 63 17 0 
3 15 64 57 0 
3 7 9 52 0 
3 0 53 65 0 
3 68 73 66 0 
3 70 69 74 0 
3 71 54 69 0 
3 55 75 46 0 
3 33 35 62 0 
3 19 49 72 0 
3 11 13 50 0 
3 1 0 65 0 
3 52 76 77 0 
3 68 78 76 0 
3 79 80 66 0 
3 74 81 70 0 
3 75 58 46 0 
3 17 19 72 0 
3 0 3 53 0 
3 76 52 68 0 
3 68 67 82 0 
3 74 79 83 0 
3 79 74 80 0 
3 44 69 54 0 
3 15 17 63 0 
3 82 78 68 0 
3 73 79 66 0 
3 61 62 37 0 
3 83 81 74 0 
3 77 53 52 0 
3 84 85 70 0 
3 81 84 70 0 
3 80 74 86 0 
3 66 80 87 0 
3 67 66 88 0 
3 82 67 89 0 
3 78 82 90 0 
3 76 78 91 0 
3 77 76 92 0 
3 53 77 93 0 
3 65 53 94 0 
3 56 65 95 0 
3 61 56 96 0 
3 62 61 97 0 
3 60 62 98 0 
3 55 60 99 0 
3 75 55 100 0 
3 58 75 101 0 
3 59 58 102 0 
3 44 59 103 0 
3 69 44 104 0 
3 74 69 105 0 
3 105 86 74 0 
3 104 105 69 0 
3 103 104 44 0 
3 102 103 59 0 
3 101 102 58 0 
3 100 101 75 0 
3 99 100 55 0 
3 98 99 60 0 
3 97 98 62 0 
3 96 97 61 0 
3 95 96 56 0 
3 94 95 65 0 
3 93 94 53 0 
3 92 93 77 0 
3 91 92 76 0 
3 90 91 78 0 
3 89 90 82 0 
3 88 89 67 0 
3 87 88 66 0 
3 86 87 80 0 
3 106 107 52 0 
3 108 106 51 0 
3 109 108 50 0 
3 110 109 57 0 
3 111 110 64 0 
3 112 111 63 0 
3 113 112 72 0 
3 114 113 49 0 
3 115 114 48 0 
3 116 115 43 0 
3 117 116 42 0 
3 118 117 40 0 
3 119 118 41 0 
3 41 47 119 0 
3 40 41 118 0 
3 42 40 117 0 
3 43 42 116 0 
3 48 43 115 0 
3 49 48 114 0 
3 72 49 113 0 
3 63 72 112 0 
3 64 63 111 0 
3 57 64 110 0 
3 50 57 109 0 
3 51 50 108 0 
3 52 51 106 0 
3 52 107 120 0 
3 120 68 52 0 
3 119 47 46 0 
3 46 121 119 0 
3 122 84 81 0 
3 123 81 83 0 
3 124 83 79 0 
3 125 79 73 0 
3 126 73 68 0 
3 68 120 126 0 
3 73 126 125 0 
3 79 125 124 0 
3 83 124 123 0 
3 81 123 122 0 
3 85 127 128 0 
3 70 128 129 0 
3 71 129 130 0 
3 54 130 131 0 
3 45 131 121 0 
3 121 46 45 0 
3 131 45 54 0 
3 130 54 71 0 
3 129 71 70 0 
3 128 70 85 0 
3 132 85 84 0 
3 133 127 85 0 
3 134 135 84 0 
3 85 132 133 0 
3 84 135 132 0 
3 84 122 134 0 
3 136 137 138 0 
3 139 138 140 0 
3 141 140 142 0 
3 143 142 144 0 
3 145 144 133 0 
3 133 132 145 0 
3 144 145 143 0 
3 142 143 141 0 
3 140 141 139 0 
3 138 139 136 0 
3 135 134 146 0 
3 147 146 148 0 
3 149 148 150 0 
3 151 150 152 0 
3 153 152 154 0 
3 154 155 153 0 
3 152 153 151 0 
3 150 151 149 0 
3 148 149 147 0 
3 146 147 135 0 
3 90 151 153 0 
3 90 147 149 0 
3 149 151 90 0 
3 90 89 135 0 
3 32 30 156 0 
3 135 147 90 0 
3 94 157 10 0 
3 156 30 28 0 
3 158 34 32 0 
3 153 155 90 0 
3 157 93 92 0 
3 157 12 10 0 
3 18 159 160 0 
3 156 158 32 0 
3 158 98 36 0 
3 39 97 96 0 
3 155 91 90 0 
3 92 155 157 0 
3 10 95 94 0 
3 160 161 18 0 
3 18 16 157 0 
3 36 34 158 0 
3 39 98 97 0 
3 98 162 163 0 
3 98 158 164 0 
3 136 101 100 0 
3 102 145 132 0 
3 102 139 141 0 
3 92 91 155 0 
3 10 96 95 0 
3 157 16 14 0 
3 157 159 18 0 
3 156 26 24 0 
3 98 38 36 0 
3 96 2 39 0 
3 96 6 4 0 
3 164 162 98 0 
3 100 163 136 0 
3 102 143 145 0 
3 102 136 139 0 
3 132 105 104 0 
3 94 93 157 0 
3 161 165 18 0 
3 18 166 167 0 
3 18 165 168 0 
3 24 167 156 0 
3 39 38 98 0 
3 96 8 6 0 
3 100 99 163 0 
3 141 143 102 0 
3 132 86 105 0 
3 14 12 157 0 
3 168 166 18 0 
3 28 26 156 0 
3 96 10 8 0 
3 136 102 101 0 
3 104 103 132 0 
3 135 87 86 0 
3 167 20 18 0 
3 4 2 96 0 
3 132 103 102 0 
3 135 88 87 0 
3 167 22 20 0 
3 163 99 98 0 
3 89 88 135 0 
3 86 132 135 0 
3 24 22 167 0 
3 169 156 167 0 
3 167 170 169 0 
3 157 171 172 0 
3 159 172 173 0 
3 160 173 174 0 
3 161 174 175 0 
3 165 175 176 0 
3 168 176 177 0 
3 166 177 170 0 
3 170 167 166 0 
3 177 166 168 0 
3 176 168 165 0 
3 175 165 161 0 
3 174 161 160 0 
3 173 160 159 0 
3 172 159 157 0 
3 156 169 178 0 
3 158 178 179 0 
3 164 179 180 0 
3 162 180 181 0 
3 181 163 162 0 
3 180 162 164 0 
3 179 164 158 0 
3 178 158 156 0 
3 182 137 181 0 
3 136 163 181 0 
3 181 137 136 0 
3 181 183 182 0 
3 155 154 171 0 
3 184 185 171 0 
3 171 154 184 0 
3 171 157 155 0 
3 186 187 188 0 
3 189 188 190 0 
3 191 190 192 0 
3 193 192 182 0 
3 182 183 193 0 
3 192 193 191 0 
3 190 191 189 0 
3 188 189 186 0 
3 194 187 186 0 
3 186 195 194 0 
3 185 184 196 0 
3 197 196 198 0 
3 199 198 200 0 
3 201 200 202 0 
3 203 202 204 0 
3 205 204 206 0 
3 207 206 194 0 
3 194 195 207 0 
3 206 207 205 0 
3 204 205 203 0 
3 202 203 201 0 
3 200 201 199 0 
3 198 199 197 0 
3 196 197 185 0 
3 121 130 129 0 
3 208 209 210 0 
3 211 113 114 0 
3 121 131 130 0 
3 210 212 208 0 
3 112 211 213 0 
3 211 112 113 0 
3 129 128 121 0 
3 127 214 119 0 
3 209 215 210 0 
3 114 216 211 0 
3 119 121 127 0 
3 120 124 125 0 
3 215 217 210 0 
3 213 218 112 0 
3 216 114 115 0 
3 116 219 220 0 
3 214 118 119 0 
3 214 219 117 0 
3 125 126 120 0 
3 215 221 217 0 
3 115 220 216 0 
3 220 115 116 0 
3 117 118 214 0 
3 154 150 148 0 
3 142 140 138 0 
3 137 133 144 0 
3 182 222 223 0 
3 224 190 188 0 
3 225 108 109 0 
3 120 107 124 0 
3 226 110 111 0 
3 213 208 218 0 
3 128 127 121 0 
3 215 194 227 0 
3 154 152 150 0 
3 214 133 137 0 
3 144 142 137 0 
3 182 228 222 0 
3 224 192 190 0 
3 224 229 182 0 
3 187 194 230 0 
3 225 106 108 0 
3 107 225 124 0 
3 111 218 226 0 
3 116 117 219 0 
3 227 231 215 0 
3 232 204 202 0 
3 184 154 233 0 
3 225 122 123 0 
3 148 146 154 0 
3 225 234 154 0 
3 138 137 142 0 
3 182 229 228 0 
3 182 192 224 0 
3 230 235 187 0 
3 194 215 236 0 
3 107 106 225 0 
3 226 109 110 0 
3 231 221 215 0 
3 194 237 238 0 
3 232 200 198 0 
3 232 206 204 0 
3 239 196 184 0 
3 233 240 184 0 
3 154 241 242 0 
3 225 134 122 0 
3 154 134 225 0 
3 214 127 133 0 
3 188 187 224 0 
3 236 230 194 0 
3 111 112 218 0 
3 238 227 194 0 
3 232 237 194 0 
3 202 200 232 0 
3 239 198 196 0 
3 242 233 154 0 
3 146 134 154 0 
3 137 243 244 0 
3 137 223 245 0 
3 235 224 187 0 
3 212 218 208 0 
3 198 239 232 0 
3 184 246 247 0 
3 154 248 241 0 
3 123 124 225 0 
3 245 243 137 0 
3 109 226 225 0 
3 184 247 239 0 
3 234 248 154 0 
3 223 137 182 0 
3 240 246 184 0 
3 194 206 232 0 
3 137 244 214 0 
3 249 250 251 0 
3 251 177 249 0 
3 176 252 249 0 
3 253 186 254 0 
3 177 176 249 0 
3 186 255 254 0 
3 170 256 257 0 
3 251 256 170 0 
3 176 175 252 0 
3 186 258 259 0 
3 254 260 253 0 
3 254 261 262 0 
3 170 263 264 0 
3 170 177 251 0 
3 175 174 252 0 
3 172 185 265 0 
3 186 266 258 0 
3 262 260 254 0 
3 255 186 189 0 
3 183 180 267 0 
3 268 179 178 0 
3 269 180 179 0 
3 169 264 270 0 
3 257 263 170 0 
3 174 173 252 0 
3 265 271 172 0 
3 195 259 272 0 
3 253 266 186 0 
3 255 193 183 0 
3 189 191 255 0 
3 183 181 180 0 
3 179 268 269 0 
3 178 169 268 0 
3 264 169 170 0 
3 249 273 250 0 
3 172 271 274 0 
3 185 275 265 0 
3 259 195 186 0 
3 191 193 255 0 
3 267 276 183 0 
3 180 269 277 0 
3 169 278 268 0 
3 173 172 252 0 
3 172 171 185 0 
3 279 201 203 0 
3 183 280 255 0 
3 276 281 183 0 
3 261 254 282 0 
3 282 249 283 0 
3 274 252 172 0 
3 284 285 185 0 
3 203 205 279 0 
3 279 284 199 0 
3 281 280 183 0 
3 283 286 282 0 
3 270 278 169 0 
3 249 282 287 0 
3 185 197 284 0 
3 199 201 279 0 
3 279 207 195 0 
3 282 286 261 0 
3 287 273 249 0 
3 197 199 284 0 
3 195 288 279 0 
3 277 267 180 0 
3 205 207 279 0 
3 285 275 185 0 
3 272 288 195 0 
3 287 282 230 0 
3 273 287 236 0 
3 250 273 215 0 
3 251 250 209 0 
3 256 251 208 0 
3 257 256 213 0 
3 263 257 211 0 
3 264 263 216 0 
3 270 264 220 0 
3 278 270 219 0 
3 268 278 214 0 
3 269 268 244 0 
3 277 269 243 0 
3 267 277 245 0 
3 276 267 223 0 
3 281 276 222 0 
3 280 281 228 0 
3 255 280 229 0 
3 254 255 224 0 
3 282 254 235 0 
3 235 230 282 0 
3 224 235 254 0 
3 229 224 255 0 
3 228 229 280 0 
3 222 228 281 0 
3 223 222 276 0 
3 245 223 267 0 
3 243 245 277 0 
3 244 243 269 0 
3 214 244 268 0 
3 219 214 278 0 
3 220 219 270 0 
3 216 220 264 0 
3 211 216 263 0 
3 213 211 257 0 
3 208 213 256 0 
3 209 208 251 0 
3 215 209 250 0 
3 236 215 273 0 
3 230 236 287 0 
3 259 258 231 0 
3 272 259 227 0 
3 288 272 238 0 
3 279 288 237 0 
3 284 279 232 0 
3 285 284 239 0 
3 275 285 247 0 
3 265 275 246 0 
3 271 265 240 0 
3 274 271 233 0 
3 252 274 242 0 
3 249 252 241 0 
3 283 249 248 0 
3 286 283 225 0 
3 283 234 225 0 
3 261 286 226 0 
3 262 261 218 0 
3 260 262 212 0 
3 253 260 210 0 
3 266 253 217 0 
3 258 266 221 0 
3 221 231 258 0 
3 217 221 266 0 
3 210 217 253 0 
3 212 210 260 0 
3 218 212 262 0 
3 226 218 261 0 
3 225 226 286 0 
3 248 234 283 0 
3 241 248 249 0 
3 242 241 252 0 
3 233 242 274 0 
3 240 233 271 0 
3 246 240 265 0 
3 247 246 275 0 
3 239 247 285 0 
3 232 239 284 0 
3 237 232 279 0 
3 238 237 288 0 
3 227 238 272 0 
3 231 227 259 0 
