ply
format ascii 1.0
comment VCGLIB generated
element vertex 838
property float x
property float y
property float z
property float nx
property float ny
property float nz
property int flags
element face 1680
property list uchar int vertex_indices
property int flags
end_header
14.00556 -1.297871 13 2.951046 0.9588534 -3.455743 0 
13.8 0 13 3.102914 6.332994e-08 -3.455751 0 
13.8 0 23.15 3.102914 -5.960464e-08 3.455752 0 
14.60213 -2.468698 13 2.510311 1.823847 -3.455752 0 
14.00556 -1.297871 23.15 2.951046 0.9588532 3.455752 0 
15.5313 -3.397871 13 1.823847 2.51031 -3.455753 0 
14.60213 -2.468698 23.15 2.510311 1.823847 3.455751 0 
16.70213 -3.994437 13 0.9588526 2.951047 -3.455752 0 
15.5313 -3.397871 23.15 1.823847 2.51031 3.455753 0 
18 -4.2 13 -3.166497e-08 3.102914 -3.455752 0 
16.70213 -3.994437 23.15 0.9588525 2.951047 3.455752 0 
19.29787 -3.994437 13 -0.9588525 2.951047 -3.455752 0 
18 -4.2 23.15 2.980232e-08 3.102914 3.455752 0 
20.4687 -3.397871 13 -1.823847 2.51031 -3.455753 0 
19.29787 -3.994437 23.15 -0.9588525 2.951047 3.455752 0 
21.39787 -2.468698 13 -2.510311 1.823848 -3.455751 0 
20.4687 -3.397871 23.15 -1.823847 2.51031 3.455753 0 
21.99444 -1.297871 13 -2.951047 0.9588544 -3.455753 0 
21.39787 -2.468698 23.15 -2.510311 1.823848 3.455751 0 
22.2 0 13 -3.102914 -6.332994e-08 -3.455752 0 
21.99444 -1.297871 23.15 -2.951046 0.9588543 3.455753 0 
21.99444 1.297871 13 -2.951046 -0.9588543 -3.455753 0 
22.2 0 23.15 -3.102914 5.960464e-08 3.455752 0 
21.39787 2.468698 13 -2.510311 -1.823848 -3.455751 0 
21.99444 1.297871 23.15 -2.951046 -0.9588544 3.455753 0 
20.4687 3.397871 13 -1.823847 -2.51031 -3.455753 0 
21.39787 2.468698 23.15 -2.51031 -1.823848 3.455751 0 
19.29787 3.994437 13 -0.9588526 -2.951047 -3.455752 0 
20.4687 3.397871 23.15 -1.823847 -2.51031 3.455753 0 
18 4.2 13 3.166497e-08 -3.102914 -3.455752 0 
19.29787 3.994437 23.15 -0.9588525 -2.951047 3.455752 0 
16.70213 3.994437 13 0.9588525 -2.951047 -3.455752 0 
18 4.2 23.15 -2.980232e-08 -3.102914 3.455752 0 
15.5313 3.397871 13 1.823847 -2.51031 -3.455753 0 
16.70213 3.994437 23.15 0.9588525 -2.951047 3.455752 0 
14.60213 2.468698 13 2.510311 -1.823847 -3.45575 0 
15.5313 3.397871 23.15 1.823847 -2.51031 3.455753 0 
14.00556 1.297871 13 2.951047 -0.9588532 -3.455752 0 
14.60213 2.468698 23.15 2.510311 -1.823847 3.455751 0 
14.00556 1.297871 23.15 2.951046 -0.9588534 3.455752 0 
21.69122 8.208222 23.15 1.278006 2.841924 2.886439 0 
19.5 8.87412 23.15 0.7185304 3.051756 3.014015 0 
19.5 -8.87412 23.15 0.7185303 -3.051755 3.014015 0 
26.34883 3.3611 23.15 2.890608 1.163711 2.886437 0 
25.23021 5.359483 23.15 2.503309 1.855609 2.886439 0 
23.64342 7.010833 23.15 1.953917 2.427353 2.886438 0 
8.8 10.68275 23.15 2.356194 4.646478 1.403348 0 
8.8 -10.68275 23.15 2.356195 -4.646479 1.403348 0 
21.69122 -8.208222 23.15 1.278006 -2.841924 2.886439 0 
23.64342 -7.010833 23.15 1.953917 -2.427353 2.886438 0 
25.23021 -5.359483 23.15 2.503309 -1.855609 2.886439 0 
26.92686 -1.145082 23.15 3.090737 -0.3964598 2.886439 0 
26.34883 -3.3611 23.15 2.890608 -1.16371 2.886437 0 
26.92686 1.145082 23.15 3.090737 0.3964598 2.886439 0 
19.5 8.87412 13 0.7185302 3.051755 -3.014015 0 
21.69122 8.208222 13 1.278006 2.841925 -2.886439 0 
23.64342 7.010833 13 1.953917 2.427353 -2.886438 0 
25.23021 5.359483 13 2.503309 1.855609 -2.886439 0 
26.34883 3.3611 13 2.890608 1.16371 -2.886437 0 
26.92686 1.145082 13 3.090737 0.3964598 -2.886439 0 
26.92686 -1.145082 13 3.090737 -0.3964598 -2.886439 0 
26.34883 -3.3611 13 2.890608 -1.16371 -2.886437 0 
25.23021 -5.359483 13 2.503309 -1.855609 -2.886439 0 
23.64342 -7.010833 13 1.953917 -2.427353 -2.886438 0 
21.69122 -8.208222 13 1.278006 -2.841924 -2.886439 0 
19.5 -8.87412 13 0.7185304 -3.051756 -3.014015 0 
8.8 10.68275 37 1.832596 1.548826 1.738245 0 
8.8 -10.68275 37 1.832596 -1.548826 1.738245 0 
2 11.83216 13 0.3541211 3.116907 -3.032951 0 
2 11.83216 37 0.3541212 3.116907 3.032952 0 
2 -11.83216 37 0.3541211 -3.116907 3.032953 0 
2 -11.83216 13 0.3541211 -3.116907 -3.032951 0 
-5.588061 -10.61949 37 -1.454326 -2.763786 2.924314 0 
-10.88466 -5.052148 37 -2.826921 -1.329747 2.940496 0 
-9.539615 -7.279818 37 -2.482641 -1.894785 2.931783 0 
-11.71785 -2.586899 37 -3.050175 -0.6852294 2.97108 0 
-10.88466 5.052148 37 -2.830101 1.322515 2.943543 0 
-3.167375 -11.57444 37 -0.8243287 -3.012318 2.924312 0 
-0.5977422 -11.9851 37 -0.1555664 -3.119195 2.924312 0 
-12 0 37 -3.127559 -0.009845877 2.987456 0 
-11.71785 2.586899 37 -3.046247 0.7008187 2.959464 0 
-3.167375 11.57444 37 -0.8243287 3.012318 2.924312 0 
-5.588061 10.61949 37 -1.454326 2.763786 2.924312 0 
-7.745967 9.165152 37 -2.015291 2.385949 2.928151 0 
-9.539615 7.279818 37 -2.481414 1.896852 2.934217 0 
-0.5977422 11.9851 37 -0.1555665 3.119195 2.924312 0 
-7.745967 -9.165152 37 -2.015345 -2.385899 2.928094 0 
-9.539615 7.279818 13 -2.481379 1.896885 -2.933764 0 
-7.745967 9.165152 13 -2.015346 2.385888 -2.928075 0 
-6.452349 6.452349 13 -2.202437 2.202437 -3.403392 0 
-7.902482 4.5625 13 -2.697423 1.557359 -3.403392 0 
-10.88466 5.052148 13 -2.830262 1.322102 -2.943318 0 
-5.588061 10.61949 13 -1.454326 2.763786 -2.924312 0 
-4.5625 7.902482 13 -1.557358 2.697423 -3.403392 0 
-0.5977422 11.9851 13 -0.1555664 3.119195 -2.924312 0 
0 9.125 13 -1.490116e-08 3.114716 -3.403392 0 
-2.361724 8.814074 13 -0.8061477 3.008584 -3.403392 0 
2.361724 8.814074 13 0.8061476 3.008585 -3.403392 0 
-8.814074 2.361724 13 -3.008585 0.8061476 -3.403392 0 
-3.167375 11.57444 13 -0.8243287 3.012318 -2.924312 0 
6.452349 6.452349 13 2.202437 2.202437 -3.403392 0 
8.814074 2.361724 13 3.008584 0.8061477 -3.403392 0 
4.5625 -7.902482 13 1.557358 -2.697423 -3.403392 0 
-5.588061 -10.61949 13 -1.454326 -2.763786 -2.924312 0 
-4.5625 -7.902482 13 -1.557359 -2.697423 -3.403392 0 
-2.361724 -8.814074 13 -0.8061476 -3.008585 -3.403392 0 
-7.745967 -9.165152 13 -2.015867 -2.38534 -2.92726 0 
-6.452349 -6.452349 13 -2.202437 -2.202437 -3.403391 0 
4.5625 7.902482 13 1.557359 2.697423 -3.403392 0 
7.902482 4.5625 13 2.697423 1.557358 -3.403392 0 
2.361724 -8.814074 13 0.8061477 -3.008584 -3.403392 0 
-0.5977422 -11.9851 13 -0.1555665 -3.119195 -2.924312 0 
0 -9.125 13 1.490116e-08 -3.114716 -3.403392 0 
-3.167375 -11.57444 13 -0.8243287 -3.012318 -2.924312 0 
-9.539615 -7.279818 13 -2.480855 -1.897398 -2.932378 0 
-7.902482 -4.5625 13 -2.697423 -1.557358 -3.403392 0 
-11.71785 2.586899 13 -3.046028 0.7024288 -2.960689 0 
-9.125 0 13 -3.114716 -1.490116e-08 -3.403392 0 
-10.88466 -5.052148 13 -2.828454 -1.327292 -2.946031 0 
-11.71785 -2.586899 13 -3.049691 -0.6888698 -2.972331 0 
-8.814074 -2.361724 13 -3.008584 -0.8061477 -3.403392 0 
-12 0 13 -3.128209 -0.004640374 -2.993051 0 
8.814074 -2.361724 13 3.008585 -0.8061476 -3.403392 0 
9.125 0 13 3.114716 1.490116e-08 -3.403392 0 
6.452349 -6.452349 13 2.202437 -2.202437 -3.403392 0 
7.902482 -4.5625 13 2.697423 -1.557359 -3.403392 0 
-10.80807 -5.213982 17.06291 -5.475631 -3.041131 -0.4451614 0 
-10.88194 -5.058 16.9267 -5.564399 -2.878253 -0.4136037 0 
-10.72976 -5.373299 17.20888 -5.40337 -3.180742 -0.3575072 0 
-10.21927 -6.290189 18.20694 -5.18402 -3.531296 -0.2774736 0 
-9.562137 -7.25021 19.66591 -4.726721 -4.132465 -0.2054537 0 
-9.691144 -7.076844 19.35791 -4.938749 -3.867934 -0.2285509 0 
-11.65578 -2.853571 15.57044 -6.002176 -1.757472 -0.504703 0 
-11.57318 -3.172004 15.70995 -5.943003 -1.959147 -0.5143643 0 
-11.22959 -4.230407 16.30281 -5.785753 -2.398751 -0.3921812 0 
-11.86897 -1.768517 15.21517 -6.176928 -0.9784915 -0.5025652 0 
-11.9818 -0.6607284 15.02975 -6.232137 -0.5025097 -0.5252742 0 
-11.71684 -2.591454 15.46799 -6.09507 -1.416141 -0.4283031 0 
-11.80732 2.141754 15.31721 -6.153048 1.11513 -0.4827578 0 
-11.77384 2.318745 15.37286 -6.10219 1.362808 -0.4471878 0 
-11.95493 1.039108 15.07375 -6.221748 0.6310371 -0.509141 0 
-11.9997 -0.08512597 15.00049 -6.253255 0.02656884 -0.4741817 0 
-11.50334 3.416607 15.82877 -5.9199 2.027043 -0.5045534 0 
-11.15 4.435939 16.44333 -5.747192 2.490715 -0.3788462 0 
-11.71656 2.592733 15.46846 -6.034276 1.660326 -0.4690852 0 
-10.16499 6.377532 18.31871 -5.157886 3.569808 -0.2702686 0 
-9.652224 7.129837 19.44946 -4.916801 3.896101 -0.2231764 0 
-10.87936 5.063538 16.93143 -5.550964 2.911719 -0.3744321 0 
-10.6942 5.443725 17.27571 -5.389387 3.203465 -0.3605189 0 
-9.275749 7.613178 29.59449 -4.594867 4.279111 0.191219 0 
-9.527538 7.295616 30.24914 -4.764062 4.089244 0.2160902 0 
-8.894865 8.054897 28.41895 -4.433113 4.44789 0.1417164 0 
-8.417335 8.552688 25.66091 -4.159695 4.707392 0.02541411 0 
-8.547413 8.422691 26.85484 -4.251296 4.623051 0.05927546 0 
-8.599975 8.369017 27.16036 -4.301819 4.574892 0.09741524 0 
-8.411308 8.558616 24.45342 -4.146489 4.719228 -0.01450365 0 
-8.458402 8.512076 23.82523 -4.217731 4.653724 -0.05428126 0 
-8.674872 8.291356 22.4646 -4.324184 4.554737 -0.09986585 0 
-9.531047 7.291032 19.7422 -4.732618 4.126053 -0.2051698 0 
-9.179701 7.728719 20.67604 -4.571383 4.303199 -0.1960444 0 
-8.987507 7.951397 21.26582 -4.466024 4.41487 -0.1434031 0 
-10.53751 5.741166 32.42539 -5.350802 3.264571 0.3675524 0 
-10.88045 5.061208 33.07056 -5.50891 2.993718 0.3498145 0 
-10.30831 6.143194 31.97375 -5.201041 3.507972 0.2657317 0 
-9.778828 6.95518 30.84439 -4.973307 3.824272 0.2309612 0 
-11.60625 3.048751 34.34605 -5.972748 1.849739 0.5781028 0 
-11.71641 2.593401 34.53129 -6.057456 1.567898 0.4878979 0 
-11.38822 3.782654 33.97355 -5.855583 2.219504 0.4277097 0 
-10.99692 4.802879 33.28265 -5.67829 2.643175 0.3652987 0 
-11.96939 0.8566033 34.94994 -6.217224 0.6589085 0.5326634 0 
-11.98012 0.6904307 34.96751 -6.240248 0.3452907 0.5082916 0 
-11.83767 1.967137 34.73309 -6.16215 1.071325 0.4840819 0 
-11.90039 -1.542992 34.83664 -6.202291 -0.7661585 0.5703579 0 
-11.87115 -1.75379 34.78844 -6.15542 -1.108117 0.4739884 0 
-11.99217 -0.4333773 34.98721 -6.23849 -0.4012038 0.5292173 0 
-12 0.0003574611 35 -6.255199 0.03930738 0.4537762 0 
-11.71679 -2.591677 34.53193 -6.095621 -1.414826 0.4270663 0 
-11.6537 -2.862062 34.42606 -5.983192 -1.838837 0.4550351 0 
-11.34067 -3.922903 33.89121 -5.841397 -2.255913 0.4215082 0 
-10.44225 -5.912654 32.23991 -5.302098 -3.347404 0.3256227 0 
-9.917033 -6.75666 31.1532 -5.034445 -3.743655 0.239446 0 
-10.92625 -4.961559 33.15435 -5.553928 -2.901748 0.3752768 0 
-9.100794 -7.82148 20.90937 -4.535421 -4.342259 -0.1810261 0 
-8.736924 -8.225944 22.18951 -4.359171 -4.520813 -0.1162987 0 
-8.519128 -8.451299 23.33165 -4.245447 -4.628577 -0.0652102 0 
-8.398251 -8.571428 25 -4.148055 -4.718078 0.00368445 0 
-8.423104 -8.547006 25.75436 -4.184628 -4.68424 0.03437211 0 
-8.407382 -8.562471 24.54296 -4.168224 -4.699132 -0.02555372 0 
-8.884337 -8.066508 28.38149 -4.428791 -4.452199 0.1406974 0 
-8.596418 -8.372669 27.14101 -4.301578 -4.574966 0.09777316 0 
-8.56239 -8.407465 26.94659 -4.25699 -4.617744 0.0603672 0 
-9.531044 -7.291036 30.2578 -4.783195 -4.064164 0.2483868 0 
-9.407351 -7.449949 29.9453 -4.672328 -4.191597 0.2307923 0 
-9.270946 -7.619026 29.58128 -4.593728 -4.280785 0.1842734 0 
9.125 0 10.56 3.114716 -1.490116e-08 -2.879794 0 
8.814074 -2.361724 10.56 3.008584 -0.8061477 -2.879793 0 
7.902482 -4.5625 10.56 2.697423 -1.557358 -2.879793 0 
6.452349 -6.452349 10.56 2.202437 -2.202437 -2.879794 0 
4.5625 -7.902482 10.56 1.557359 -2.697423 -2.879793 0 
2.361724 -8.814074 10.56 0.8061477 -3.008584 -2.879793 0 
0 -9.125 10.56 -1.490116e-08 -3.114716 -2.879794 0 
-2.361724 -8.814074 10.56 -0.8061477 -3.008584 -2.879793 0 
-4.5625 -7.902482 10.56 -1.557358 -2.697423 -2.879793 0 
-6.452349 -6.452349 10.56 -2.202437 -2.202437 -2.879794 0 
-7.902482 -4.5625 10.56 -2.697423 -1.557359 -2.879793 0 
-8.814074 -2.361724 10.56 -3.008584 -0.8061477 -2.879793 0 
-9.125 0 10.56 -3.114716 1.490116e-08 -2.879794 0 
-8.814074 2.361724 10.56 -3.008584 0.8061477 -2.879793 0 
-7.902482 4.5625 10.56 -2.697423 1.557358 -2.879793 0 
-6.452349 6.452349 10.56 -2.202437 2.202437 -2.879794 0 
-4.5625 7.902482 10.56 -1.557359 2.697423 -2.879793 0 
-2.361724 8.814074 10.56 -0.8061477 3.008584 -2.879793 0 
0 9.125 10.56 1.490116e-08 3.114716 -2.879794 0 
2.361724 8.814074 10.56 0.8061477 3.008584 -2.879793 0 
4.5625 7.902482 10.56 1.557358 2.697423 -2.879793 0 
6.452349 6.452349 10.56 2.202437 2.202437 -2.879794 0 
7.902482 4.5625 10.56 2.697423 1.557359 -2.879793 0 
8.814074 2.361724 10.56 3.008584 0.8061477 -2.879793 0 
-7.846233 1.07844 10.56 -3.079681 0.5309905 -3.346479 0 
-7.264314 3.155337 10.56 -2.854666 1.239956 -3.414775 0 
-6.143633 4.998217 10.56 -2.414271 1.964155 -3.414774 0 
-2.652246 7.462707 10.56 -1.042256 2.932628 -3.414775 0 
-0.5404799 7.901536 10.56 -0.2123929 3.105076 -3.414775 0 
-4.567308 6.470402 10.56 -1.79482 2.542681 -3.414774 0 
1.611372 7.754346 10.56 0.6332224 3.047235 -3.414774 0 
3.643715 7.032051 10.56 1.431875 2.763393 -3.414775 0 
5.405821 5.788221 10.56 2.124332 2.274604 -3.414775 0 
6.767002 4.115105 10.56 2.659236 1.617118 -3.414774 0 
7.626305 2.136791 10.56 2.996918 0.8396972 -3.414775 0 
7.92 0 10.56 3.112332 -1.490116e-08 -3.414774 0 
7.626305 -2.136791 10.56 2.996918 -0.8396972 -3.414775 0 
6.767002 -4.115105 10.56 2.659237 -1.617118 -3.414774 0 
5.405821 -5.788221 10.56 2.124332 -2.274604 -3.414775 0 
3.643715 -7.032051 10.56 1.431875 -2.763393 -3.414775 0 
1.611372 -7.754346 10.56 0.6332223 -3.047234 -3.414774 0 
-0.5404799 -7.901536 10.56 -0.2123929 -3.105076 -3.414774 0 
-2.652246 -7.462707 10.56 -1.042256 -2.932628 -3.414775 0 
-7.846233 -1.07844 10.56 -3.079681 -0.5309906 -3.346479 0 
-7.264314 -3.155337 10.56 -2.854666 -1.239957 -3.414774 0 
-7.92 0 10.56 -3.134269 1.490116e-08 -3.278183 0 
-4.567308 -6.470402 10.56 -1.79482 -2.542681 -3.414774 0 
-6.143633 -4.998217 10.56 -2.414271 -1.964155 -3.414774 0 
7.92 0 7.56 3.112332 1.490116e-08 3.414774 0 
7.626305 -2.136791 7.56 2.996918 -0.8396971 3.414775 0 
6.767002 -4.115105 7.56 2.659237 -1.617118 3.414774 0 
5.405821 -5.788221 7.56 2.124332 -2.274604 3.414775 0 
3.643715 -7.032051 7.56 1.431875 -2.763393 3.414775 0 
1.611372 -7.754346 7.56 0.6332224 -3.047235 3.414774 0 
-0.5404799 -7.901536 7.56 -0.2123929 -3.105076 3.414774 0 
-2.652246 -7.462707 7.56 -1.042256 -2.932628 3.414775 0 
-4.567308 -6.470402 7.56 -1.79482 -2.542681 3.414775 0 
-6.143633 -4.998217 7.56 -2.414271 -1.964155 3.414774 0 
-7.264314 -3.155337 7.56 -2.854666 -1.239956 3.414775 0 
-7.846233 1.07844 7.56 -3.079681 0.5309906 3.346479 0 
-7.92 0 7.56 -3.134269 -1.117587e-08 3.278183 0 
-7.846233 -1.07844 7.56 -3.079681 -0.5309906 3.346479 0 
-7.264314 3.155337 7.56 -2.854666 1.239956 3.414774 0 
-6.143633 4.998217 7.56 -2.414271 1.964155 3.414774 0 
-4.567308 6.470402 7.56 -1.79482 2.542681 3.414774 0 
-2.652246 7.462707 7.56 -1.042256 2.932628 3.414775 0 
-0.5404799 7.901536 7.56 -0.2123929 3.105076 3.414774 0 
1.611372 7.754346 7.56 0.6332223 3.047235 3.414774 0 
3.643715 7.032051 7.56 1.431875 2.763393 3.414775 0 
5.405821 5.788221 7.56 2.124332 2.274604 3.414775 0 
6.767002 4.115105 7.56 2.659236 1.617118 3.414774 0 
7.626305 2.136791 7.56 2.996918 0.8396972 3.414775 0 
-9.125 0 7.56 -3.114716 -2.235174e-08 2.879794 0 
-8.814074 -2.361724 7.56 -3.008584 -0.8061477 2.879793 0 
7.902482 4.5625 7.56 2.697423 1.557358 2.879793 0 
6.452349 6.452349 7.56 2.202437 2.202437 2.879794 0 
-7.902482 -4.5625 7.56 -2.697423 -1.557358 2.879793 0 
8.814074 2.361724 7.56 3.008584 0.8061477 2.879793 0 
4.5625 7.902482 7.56 1.557358 2.697423 2.879793 0 
2.361724 8.814074 7.56 0.8061477 3.008584 2.879793 0 
-2.361724 8.814074 7.56 -0.8061477 3.008584 2.879793 0 
-4.5625 7.902482 7.56 -1.557358 2.697423 2.879793 0 
-6.452349 6.452349 7.56 -2.202437 2.202437 2.879794 0 
-7.902482 4.5625 7.56 -2.697423 1.557358 2.879793 0 
-8.814074 2.361724 7.56 -3.008584 0.8061477 2.879793 0 
-2.361724 -8.814074 7.56 -0.8061477 -3.008584 2.879793 0 
0 -9.125 7.56 2.235174e-08 -3.114716 2.879794 0 
2.361724 -8.814074 7.56 0.8061477 -3.008584 2.879793 0 
0 9.125 7.56 -2.235174e-08 3.114716 2.879794 0 
4.5625 -7.902482 7.56 1.557358 -2.697423 2.879793 0 
-6.452349 -6.452349 7.56 -2.202437 -2.202437 2.879794 0 
6.452349 -6.452349 7.56 2.202437 -2.202437 2.879794 0 
7.902482 -4.5625 7.56 2.697423 -1.557358 2.879793 0 
8.814074 -2.361724 7.56 3.008584 -0.8061477 2.879793 0 
-4.5625 -7.902482 7.56 -1.557358 -2.697423 2.879793 0 
9.125 0 7.56 3.114716 2.235174e-08 2.879794 0 
9.125 0 5.56 3.114716 -2.235174e-08 -2.879794 0 
8.814074 -2.361724 5.56 3.008584 -0.8061476 -2.879793 0 
7.902482 -4.5625 5.56 2.697423 -1.557358 -2.879793 0 
6.452349 -6.452349 5.56 2.202437 -2.202437 -2.879794 0 
4.5625 -7.902482 5.56 1.557358 -2.697423 -2.879793 0 
2.361724 -8.814074 5.56 0.8061477 -3.008584 -2.879793 0 
0 -9.125 5.56 -1.490116e-08 -3.114716 -2.879794 0 
-2.361724 -8.814074 5.56 -0.8061476 -3.008584 -2.879793 0 
-4.5625 -7.902482 5.56 -1.557358 -2.697423 -2.879793 0 
-6.452349 -6.452349 5.56 -2.202437 -2.202437 -2.879794 0 
-7.902482 -4.5625 5.56 -2.697423 -1.557358 -2.879793 0 
-8.814074 -2.361724 5.56 -3.008584 -0.8061477 -2.879793 0 
-9.125 0 5.56 -3.114716 1.490116e-08 -2.879794 0 
-8.814074 2.361724 5.56 -3.008584 0.8061476 -2.879793 0 
-7.902482 4.5625 5.56 -2.697423 1.557358 -2.879793 0 
-6.452349 6.452349 5.56 -2.202437 2.202437 -2.879794 0 
-4.5625 7.902482 5.56 -1.557358 2.697423 -2.879793 0 
-2.361724 8.814074 5.56 -0.8061477 3.008584 -2.879793 0 
0 9.125 5.56 1.490116e-08 3.114716 -2.879794 0 
2.361724 8.814074 5.56 0.8061476 3.008584 -2.879793 0 
4.5625 7.902482 5.56 1.557358 2.697423 -2.879793 0 
6.452349 6.452349 5.56 2.202437 2.202437 -2.879794 0 
7.902482 4.5625 5.56 2.697423 1.557358 -2.879793 0 
8.814074 2.361724 5.56 3.008584 0.8061477 -2.879793 0 
-7.846233 1.07844 5.56 -3.079682 0.5309906 -3.346479 0 
-7.264314 3.155337 5.56 -2.854666 1.239956 -3.414775 0 
-6.143633 4.998217 5.56 -2.414271 1.964155 -3.414774 0 
-2.652246 7.462707 5.56 -1.042256 2.932629 -3.414775 0 
-0.5404799 7.901536 5.56 -0.2123929 3.105076 -3.414775 0 
-4.567308 6.470402 5.56 -1.79482 2.542681 -3.414774 0 
1.611372 7.754346 5.56 0.6332224 3.047235 -3.414774 0 
3.643715 7.032051 5.56 1.431875 2.763393 -3.414775 0 
5.405821 5.788221 5.56 2.124332 2.274604 -3.414775 0 
6.767002 4.115105 5.56 2.659237 1.617118 -3.414774 0 
7.626305 2.136791 5.56 2.996918 0.8396972 -3.414775 0 
7.92 0 5.56 3.112332 -7.450581e-09 -3.414774 0 
7.626305 -2.136791 5.56 2.996918 -0.8396972 -3.414775 0 
6.767002 -4.115105 5.56 2.659236 -1.617118 -3.414774 0 
5.405821 -5.788221 5.56 2.124332 -2.274604 -3.414775 0 
3.643715 -7.032051 5.56 1.431875 -2.763393 -3.414775 0 
1.611372 -7.754346 5.56 0.6332224 -3.047235 -3.414774 0 
-0.5404799 -7.901536 5.56 -0.2123929 -3.105076 -3.414774 0 
-2.652246 -7.462707 5.56 -1.042256 -2.932629 -3.414775 0 
-7.846233 -1.07844 5.56 -3.079681 -0.5309906 -3.346479 0 
-7.264314 -3.155337 5.56 -2.854666 -1.239956 -3.414774 0 
-7.92 0 5.56 -3.134269 0 -3.278183 0 
-4.567308 -6.470402 5.56 -1.79482 -2.542681 -3.414774 0 
-6.143633 -4.998217 5.56 -2.414271 -1.964155 -3.414774 0 
7.92 0 2.56 3.112332 1.490116e-08 3.414774 0 
7.626305 -2.136791 2.56 2.996918 -0.8396972 3.414775 0 
6.767002 -4.115105 2.56 2.659237 -1.617118 3.414774 0 
5.405821 -5.788221 2.56 2.124332 -2.274604 3.414775 0 
3.643715 -7.032051 2.56 1.431875 -2.763393 3.414775 0 
1.611372 -7.754346 2.56 0.6332224 -3.047235 3.414774 0 
-0.5404799 -7.901536 2.56 -0.2123929 -3.105076 3.414774 0 
-2.652246 -7.462707 2.56 -1.042256 -2.932629 3.414775 0 
-4.567308 -6.470402 2.56 -1.79482 -2.542681 3.414775 0 
-6.143633 -4.998217 2.56 -2.414271 -1.964155 3.414774 0 
-7.264314 -3.155337 2.56 -2.854666 -1.239956 3.414775 0 
-7.846233 1.07844 2.56 -3.079682 0.5309906 3.346479 0 
-7.92 0 2.56 -3.134269 0 3.278183 0 
-7.846233 -1.07844 2.56 -3.079682 -0.5309906 3.346479 0 
-7.264314 3.155337 2.56 -2.854666 1.239956 3.414774 0 
-6.143633 4.998217 2.56 -2.414271 1.964155 3.414774 0 
-4.567308 6.470402 2.56 -1.79482 2.542681 3.414774 0 
-2.652246 7.462707 2.56 -1.042256 2.932629 3.414775 0 
-0.5404799 7.901536 2.56 -0.212393 3.105076 3.414774 0 
1.611372 7.754346 2.56 0.6332224 3.047235 3.414774 0 
3.643715 7.032051 2.56 1.431875 2.763393 3.414775 0 
5.405821 5.788221 2.56 2.124332 2.274604 3.414775 0 
6.767002 4.115105 2.56 2.659236 1.617118 3.414774 0 
7.626305 2.136791 2.56 2.996918 0.8396972 3.414775 0 
-9.125 0 2.56 -3.114716 7.450581e-09 2.879794 0 
-8.814074 -2.361724 2.56 -3.008584 -0.8061476 2.879793 0 
7.902482 4.5625 2.56 2.697423 1.557358 2.879793 0 
6.452349 6.452349 2.56 2.202437 2.202437 2.879794 0 
-7.902482 -4.5625 2.56 -2.697423 -1.557358 2.879793 0 
8.814074 2.361724 2.56 3.008584 0.8061476 2.879793 0 
4.5625 7.902482 2.56 1.557358 2.697423 2.879793 0 
2.361724 8.814074 2.56 0.8061477 3.008585 2.879793 0 
-2.361724 8.814074 2.56 -0.8061476 3.008584 2.879793 0 
-4.5625 7.902482 2.56 -1.557358 2.697423 2.879793 0 
-6.452349 6.452349 2.56 -2.202437 2.202437 2.879794 0 
-7.902482 4.5625 2.56 -2.697423 1.557358 2.879793 0 
-8.814074 2.361724 2.56 -3.008585 0.8061477 2.879793 0 
-2.361724 -8.814074 2.56 -0.8061477 -3.008585 2.879793 0 
0 -9.125 2.56 -7.450581e-09 -3.114716 2.879794 0 
2.361724 -8.814074 2.56 0.8061476 -3.008584 2.879793 0 
0 9.125 2.56 7.450581e-09 3.114716 2.879794 0 
4.5625 -7.902482 2.56 1.557358 -2.697423 2.879793 0 
-6.452349 -6.452349 2.56 -2.202437 -2.202437 2.879794 0 
6.452349 -6.452349 2.56 2.202437 -2.202437 2.879794 0 
7.902482 -4.5625 2.56 2.697423 -1.557358 2.879793 0 
8.814074 -2.361724 2.56 3.008585 -0.8061477 2.879793 0 
-4.5625 -7.902482 2.56 -1.557358 -2.697423 2.879793 0 
9.125 0 2.56 3.114716 -7.450581e-09 2.879794 0 
9.125 0 0 3.114716 7.450581e-09 -2.879794 0 
8.814074 -2.361724 0 3.008584 -0.8061477 -2.879793 0 
7.902482 -4.5625 0 2.697423 -1.557358 -2.879793 0 
6.452349 -6.452349 0 2.202437 -2.202437 -2.879794 0 
4.5625 -7.902482 0 1.557358 -2.697423 -2.879793 0 
2.361724 -8.814074 0 0.8061477 -3.008584 -2.879793 0 
0 -9.125 0 1.490116e-08 -3.114716 -2.879794 0 
-2.361724 -8.814074 0 -0.8061477 -3.008584 -2.879793 0 
-4.5625 -7.902482 0 -1.557358 -2.697423 -2.879793 0 
-6.452349 -6.452349 0 -2.202437 -2.202437 -2.879794 0 
-7.902482 -4.5625 0 -2.697423 -1.557358 -2.879793 0 
-8.814074 -2.361724 0 -3.008584 -0.8061477 -2.879793 0 
-9.125 0 0 -3.114716 -1.490116e-08 -2.879794 0 
-8.814074 2.361724 0 -3.008584 0.8061477 -2.879793 0 
-7.902482 4.5625 0 -2.697423 1.557358 -2.879793 0 
-6.452349 6.452349 0 -2.202437 2.202437 -2.879794 0 
-4.5625 7.902482 0 -1.557358 2.697423 -2.879793 0 
-2.361724 8.814074 0 -0.8061477 3.008584 -2.879793 0 
0 9.125 0 -1.490116e-08 3.114716 -2.879794 0 
2.361724 8.814074 0 0.8061477 3.008584 -2.879793 0 
4.5625 7.902482 0 1.557358 2.697423 -2.879793 0 
6.452349 6.452349 0 2.202437 2.202437 -2.879794 0 
7.902482 4.5625 0 2.697423 1.557358 -2.879793 0 
8.814074 2.361724 0 3.008584 0.8061477 -2.879793 0 
-1.854102 -5.706339 0 0.9588878 2.951054 -3.455372 0 
0 -6 0 -4.370511e-05 3.102922 -3.455686 0 
-3.526711 -4.854102 0 1.823835 2.51032 -3.455422 0 
-4.854102 -3.526711 0 2.510304 1.823864 -3.455388 0 
-3.526711 4.854102 0 1.823835 -2.51032 -3.455422 0 
4.854102 3.526711 0 -2.51031 -1.823847 -3.455752 0 
1.854102 -5.706339 0 -0.9588532 2.951047 -3.455751 0 
-5.706339 1.854102 0 2.951042 -0.9588714 -3.455371 0 
-6 0 0 3.102914 0 -3.455752 0 
-4.854102 3.526711 0 2.510304 -1.823864 -3.455388 0 
-1.854102 5.706339 0 0.9588433 -2.951058 -3.455442 0 
0 6 0 7.450581e-08 -3.102914 -3.455752 0 
1.854102 5.706339 0 -0.9588531 -2.951047 -3.455752 0 
3.526711 4.854102 0 -1.823847 -2.51031 -3.455752 0 
3.526711 -4.854102 0 -1.823847 2.51031 -3.455752 0 
4.854102 -3.526711 0 -2.51031 1.823847 -3.455752 0 
5.706339 -1.854102 0 -2.951047 0.9588531 -3.455752 0 
-5.706339 -1.854102 0 2.951042 0.9588714 -3.455371 0 
5.706339 1.854102 0 -2.951047 -0.9588532 -3.455751 0 
6 0 0 -3.102914 -5.960464e-08 -3.455752 0 
-9.671389 -7.861019 26.62204 -0.9901665 -6.127064 0.8846617 0 
-9.989455 -7.846968 26.55727 -0.2388188 -6.194514 1.0066 0 
-9.826956 -7.977205 25.60349 -0.2540685 -6.252653 0.5127677 0 
-9.516738 -7.999692 25.629 -0.979974 -6.180616 0.4111832 0 
-9.214074 -8.070189 25.65757 -1.94291 -5.955308 0.299183 0 
-9.361715 -7.926468 26.69537 -1.958882 -5.914636 0.6846955 0 
-8.926332 -8.186979 25.68849 -2.845015 -5.583731 0.2056544 0 
-9.068608 -8.04159 26.77534 -2.882065 -5.54551 0.4635072 0 
-8.660518 -8.347219 25.72102 -3.677989 -5.073915 0.1095614 0 
-8.799802 -8.203345 26.85982 -3.728539 -5.029786 0.2304088 0 
-9.797959 -8 25 -0.1558811 -6.279784 0.0544319 0 
-9.499269 -8.015078 24.61889 -0.9662789 -6.190255 -0.2684091 0 
-9.197388 -8.086141 24.60157 -1.939971 -5.961134 -0.1838009 0 
-8.910249 -8.203115 24.58284 -2.839595 -5.588991 -0.1232759 0 
-8.644779 -8.363178 24.56314 -3.670013 -5.080301 -0.06810994 0 
-9.623375 -7.904554 23.60952 -0.9751295 -6.136608 -0.8386947 0 
-9.808613 -7.991641 24.63437 -0.2524769 -6.262667 -0.385445 0 
-9.315893 -7.971577 23.54657 -1.975751 -5.914129 -0.6643394 0 
-9.024456 -8.087224 23.47808 -2.889179 -5.54549 -0.4508031 0 
-8.756569 -8.248515 23.40582 -3.720672 -5.037805 -0.2314745 0 
-9.864899 -7.680993 22.66011 -1.044894 -5.993907 -1.5122 0 
-10.00778 -7.832013 23.36918 -0.1912268 -6.14166 -1.304336 0 
-9.938983 -7.887879 23.66532 -0.2447586 -6.216184 -0.8583744 0 
-9.546244 -7.740041 22.55496 -2.055309 -5.808822 -1.156314 0 
-9.246361 -7.852979 22.4392 -2.99421 -5.449561 -0.7886493 0 
-8.973952 -8.016529 22.31619 -3.834918 -4.938552 -0.4069687 0 
-10.26725 -7.281402 21.60088 -1.066508 -5.79042 -2.14195 0 
-10.19308 -7.677547 22.75161 -0.2682031 -6.024054 -1.746675 0 
-9.929091 -7.326878 21.45021 -2.180836 -5.626983 -1.688919 0 
-9.61488 -7.434896 21.28073 -3.166494 -5.280972 -1.156794 0 
-9.335542 -7.601696 21.09833 -4.027543 -4.759768 -0.59696 0 
-10.77499 -6.720775 20.5797 -1.139164 -5.497359 -2.769924 0 
-10.82601 -7.101437 21.31631 -0.2027426 -5.595735 -2.846221 0 
-10.61759 -7.300048 21.72749 -0.2589468 -5.829339 -2.319302 0 
-10.41039 -6.748797 20.3877 -2.299094 -5.411369 -2.149744 0 
-10.07758 -6.849735 20.16491 -3.349678 -5.077066 -1.471989 0 
-9.790749 -7.019282 19.92085 -4.241727 -4.539715 -0.7389843 0 
-10.91642 -6.55154 20.32832 -1.285669 -5.256229 -3.148986 0 
-11.15583 -6.766862 20.73273 -0.2761418 -5.422517 -3.153898 0 
-10.54404 -6.574683 20.12668 -2.44868 -5.189316 -2.501044 0 
-10.20593 -6.673442 19.89047 -3.499074 -4.887442 -1.739117 0 
-9.91731 -6.843376 19.63031 -4.378896 -4.372944 -0.9200053 0 
-11.49251 -5.789119 19.39622 -1.353425 -4.851542 -3.713401 0 
-11.30634 -6.605054 20.48633 -0.3254877 -5.179807 -3.530901 0 
-11.0862 -5.792705 19.1614 -2.631987 -4.834664 -2.974841 0 
-10.72594 -5.881404 18.87403 -3.762651 -4.548184 -2.0711 0 
-10.43156 -6.050332 18.54993 -4.667717 -4.022193 -1.073786 0 
-12.044 -4.912234 18.59988 -1.418553 -4.380878 -4.22333 0 
-11.92248 -5.870843 19.56555 -0.3266853 -4.733869 -4.104253 0 
-11.60115 -4.898676 18.34111 -2.806435 -4.410789 -3.419701 0 
-11.21865 -4.975297 18.00781 -4.008544 -4.148701 -2.391249 0 
-10.92167 -5.137053 17.62194 -4.930546 -3.632705 -1.215401 0 
-12.12805 -4.76119 18.48459 -1.528334 -4.012496 -4.533821 0 
-12.51805 -5.015079 18.76711 -0.3271702 -4.217333 -4.63825 0 
-11.67921 -4.745299 18.2228 -2.971355 -4.048916 -3.713022 0 
-11.29322 -4.819783 17.88264 -4.172698 -3.827513 -2.630965 0 
-10.99615 -4.97961 17.48711 -5.084455 -3.350921 -1.362751 0 
-12.60942 -4.866383 18.65033 -0.3930091 -3.869388 -4.923501 0 
-12.99904 -4.158837 18.16596 -0.3557071 -3.496663 -5.200693 0 
-12.57744 -3.837355 17.89021 -1.613496 -3.396829 -4.984861 0 
-12.09425 -3.811367 17.61524 -3.154115 -3.511996 -4.090324 0 
-11.68904 -3.872428 17.23864 -4.424611 -3.313573 -2.904653 0 
-11.39318 -4.015809 16.78957 -5.340335 -2.857017 -1.514278 0 
-13.10119 -3.94838 18.04225 -0.4203273 -3.093163 -5.441817 0 
-13.50204 -2.960537 17.56796 -0.4107432 -2.595865 -5.697509 0 
-12.93935 -2.859313 17.43491 -1.713024 -2.781384 -5.313716 0 
-12.42513 -2.830565 17.15327 -3.321131 -2.868687 -4.431507 0 
-12.00368 -2.87677 16.7473 -4.640156 -2.706356 -3.164941 0 
-11.7113 -2.993948 16.25197 -5.545972 -2.325252 -1.640383 0 
-13.02566 -2.568061 17.32904 -1.77445 -2.250992 -5.533592 0 
-12.50351 -2.540018 17.04639 -3.452854 -2.310062 -4.649801 0 
-12.07806 -2.581681 16.63337 -4.780583 -2.188738 -3.348471 0 
-11.78692 -2.689369 16.12646 -5.677186 -1.88693 -1.733718 0 
-13.59841 -2.663333 17.45635 -0.4525336 -2.174868 -5.864874 0 
-13.73683 -2.161394 17.29751 -0.4228348 -1.786007 -5.999973 0 
-13.24702 -1.584433 17.06195 -1.837751 -1.465393 -5.775577 0 
-12.70342 -1.563338 16.77786 -3.570721 -1.562612 -4.870127 0 
-12.26751 -1.589319 16.34662 -4.937639 -1.476208 -3.512331 0 
-11.98035 -1.659928 15.80885 -5.830711 -1.239229 -1.824991 0 
-13.84713 -1.650616 17.17213 -0.4680465 -1.274258 -6.123303 0 
-13.97876 -0.6166798 17.0238 -0.4747109 -0.622871 -6.22287 0 
-13.36327 -0.5904459 16.92412 -1.901876 -0.6820764 -5.895637 0 
-12.80771 -0.5817767 16.64 -3.643626 -0.712327 -5.006207 0 
-12.36616 -0.5915163 16.1991 -5.025496 -0.6721339 -3.622692 0 
-12.08162 -0.6187162 15.64435 -5.908103 -0.5713939 -1.889748 0 
-13.99965 -0.07945091 17.00039 -0.489567 -0.1621114 -6.247909 0 
-13.38166 -0.07603937 16.90248 -1.902024 0.03380885 -5.932505 0 
-12.82415 -0.07490586 16.6184 -3.663087 0.04696196 -5.04192 0 
-12.3817 -0.07616136 16.17596 -5.04817 0.04642029 -3.653155 0 
-12.09762 -0.07968296 15.61847 -5.93058 0.03969163 -1.904866 0 
-13.33565 0.9291518 16.95672 -1.892052 0.8919789 -5.874273 0 
-14 0.0002139796 17 -0.479112 0.1855608 -6.250439 0 
-12.78297 0.9158188 16.67256 -3.629575 0.9224038 -4.986645 0 
-12.34278 0.9311233 16.23396 -5.011368 0.8765242 -3.606383 0 
-12.05758 0.973587 15.6833 -5.89933 0.7444828 -1.87346 0 
-13.77521 1.99897 17.25377 -0.4705329 1.48936 -6.074066 0 
-13.18323 1.921395 17.13827 -1.873559 1.612306 -5.719501 0 
-12.64598 1.897192 16.85442 -3.547699 1.683033 -4.83766 0 
-12.21313 1.928598 16.42846 -4.901598 1.592587 -3.501012 0 
-11.92469 2.012711 15.89976 -5.795665 1.353341 -1.837552 0 
-13.73615 2.164162 17.29829 -0.4354948 1.982863 -5.935831 0 
-13.14851 2.081661 17.18003 -1.799923 2.138153 -5.569965 0 
-12.61466 2.056232 16.89637 -3.45278 2.216829 -4.690007 0 
-12.18346 2.090201 16.47327 -4.800624 2.103819 -3.370314 0 
-11.89436 2.180459 15.94945 -5.718163 1.761771 -1.722316 0 
-13.42056 3.188833 17.66302 -0.4181432 2.636746 -5.675529 0 
-12.86615 3.083941 17.52549 -1.739754 2.817304 -5.291904 0 
-12.35849 3.055117 17.24488 -3.313087 2.902036 -4.423026 0 
-11.94038 3.104789 16.84488 -4.626571 2.745735 -3.165285 0 
-11.64709 3.228771 16.35918 -5.542912 2.370644 -1.606742 0 
-13.00833 4.14021 18.15466 -0.3850076 3.411771 -5.249822 0 
-12.49301 4.029181 17.99926 -1.618182 3.598883 -4.842937 0 
-12.0166 4.00469 17.72638 -3.090617 3.668979 -4.000288 0 
-11.61507 4.068588 17.35661 -4.353053 3.465384 -2.838852 0 
-11.31874 4.216049 16.91789 -5.295053 2.971 -1.458331 0 
-12.47656 5.08081 18.82057 -0.3579636 4.115944 -4.721417 0 
-12.00578 4.97913 18.65277 -1.482751 4.29222 -4.297389 0 
-11.56562 4.966665 18.39543 -2.844835 4.333985 -3.493851 0 
-11.1847 5.044226 18.06527 -4.043599 4.085725 -2.457585 0 
-10.88779 5.206769 17.68376 -4.976468 3.577944 -1.212134 0 
-11.94062 5.847203 19.54013 -0.3368232 4.57409 -4.285972 0 
-11.43353 5.873319 19.48616 -1.317457 4.913138 -3.640699 0 
-11.03088 5.878861 19.25433 -2.598935 4.878883 -2.931333 0 
-10.67294 5.968691 18.972 -3.725212 4.592069 -2.045505 0 
-10.37902 6.13796 18.65442 -4.647038 4.054807 -1.048596 0 
-11.85916 5.952363 19.65497 -0.2959967 4.912119 -3.899248 0 
-11.26093 6.654514 20.55957 -0.3047298 5.285153 -3.370927 0 
-10.87378 6.603225 20.40297 -1.231768 5.362799 -2.989498 0 
-10.50376 6.627838 20.20416 -2.378453 5.290073 -2.359424 0 
-10.16726 6.727264 19.97195 -3.437607 4.971836 -1.633144 0 
-9.879164 6.897103 19.71662 -4.359082 4.412116 -0.8411322 0 
-10.82544 7.101989 21.31737 -0.2493051 5.563238 -2.903409 0 
-10.35429 7.190064 21.40858 -1.121314 5.695637 -2.350898 0 
-10.01176 7.232567 21.2499 -2.220633 5.552915 -1.864207 0 
-9.694399 7.339445 21.07052 -3.21238 5.220155 -1.289784 0 
-9.413671 7.506842 20.8769 -4.089523 4.697668 -0.6394698 0 
-10.70965 7.21347 21.54083 -0.2704031 5.736486 -2.539584 0 
-10.48542 7.421304 22.01265 -0.2528572 5.897429 -2.140586 0 
-10.14215 7.409519 21.89515 -1.07246 5.879303 -1.885985 0 
-9.81018 7.459248 21.7569 -2.102537 5.71566 -1.472302 0 
-9.50046 7.568854 21.60248 -3.079189 5.362492 -1.003663 0 
-9.22319 7.734725 21.43697 -3.953225 4.831728 -0.5024506 0 
-10.12068 7.738599 22.97168 -0.266935 6.062168 -1.613969 0 
-9.796137 7.745818 22.88848 -1.01749 6.038045 -1.344273 0 
-9.480701 7.807151 22.79339 -2.020749 5.84827 -1.011372 0 
-9.183234 7.920878 22.68906 -2.956117 5.484398 -0.6923478 0 
-8.912086 8.083804 22.57843 -3.806571 4.965596 -0.353665 0 
-9.555946 7.964957 24.02061 -0.9836805 6.155418 -0.6792524 0 
-10.00804 7.831796 23.36814 -0.1308251 6.169094 -1.177416 0 
-9.251519 8.034181 23.97618 -1.957887 5.932089 -0.5440835 0 
-8.962421 8.150554 23.928 -2.861806 5.565462 -0.3729789 0 
-8.69584 8.311183 23.87726 -3.693167 5.059913 -0.19227 0 
-9.868135 7.944604 24.06018 -0.2553139 6.232494 -0.7270109 0 
-9.813192 7.988041 24.56273 -0.2481156 6.269853 -0.2371561 0 
-9.503632 8.011241 24.54422 -0.9846352 6.190185 -0.2082832 0 
-9.201554 8.082163 24.52351 -1.931052 5.96366 -0.1599007 0 
-8.914266 8.199091 24.50111 -2.832245 5.591803 -0.1098952 0 
-8.648709 8.359199 24.47756 -3.663563 5.084395 -0.05694805 0 
-9.510327 8.005344 25.5511 -0.993885 6.183066 0.3438106 0 
-9.207951 8.076049 25.57613 -1.943133 5.956996 0.2640626 0 
-8.92043 8.192906 25.60322 -2.843951 5.58517 0.1779548 0 
-8.654743 8.353082 25.63171 -3.671681 5.078884 0.0923981 0 
-9.654768 7.876138 26.5457 -0.9881921 6.132797 0.8508981 0 
-9.820224 7.982509 25.52873 -0.252222 6.259765 0.3895741 0 
-9.345855 7.942133 26.61561 -1.961107 5.917753 0.6567378 0 
-9.053327 8.057438 26.69179 -2.881874 5.547307 0.4454324 0 
-8.784838 8.219033 26.77223 -3.720719 5.036011 0.2235142 0 
-9.713085 7.822852 26.79984 -1.043854 6.054402 1.251038 0 
-9.971981 7.861179 26.48387 -0.2401391 6.200327 0.9684553 0 
-9.401497 7.88693 26.88111 -2.016434 5.855859 0.9690756 0 
-9.106936 8.00159 26.96991 -2.933418 5.498528 0.660699 0 
-8.837339 8.163742 27.06384 -3.762851 4.997992 0.3433169 0 
-10.03973 7.511744 27.84415 -1.075784 5.910939 1.788606 0 
-10.0333 7.811082 26.72829 -0.2673218 6.108952 1.428103 0 
-9.712744 7.564935 27.97124 -2.103976 5.738221 1.391159 0 
-9.406675 7.675801 28.11241 -3.064157 5.383228 0.9496408 0 
-9.131159 7.840853 28.26323 -3.915078 4.866337 0.488347 0 
-10.46014 7.076461 28.81401 -1.156872 5.647352 2.45538 0 
-10.37734 7.517904 27.73516 -0.2649508 5.936143 2.020324 0 
-10.11219 7.115334 28.98184 -2.250328 5.520841 1.926074 0 
-9.790988 7.220787 29.17276 -3.256809 5.184242 1.32353 0 
-9.508626 7.388846 29.37958 -4.12975 4.660367 0.6488599 0 
-11.0124 6.433033 29.83638 -1.253054 5.265749 3.148007 0 
-10.82171 7.105633 28.67559 -0.2845152 5.628386 2.760431 0 
-10.63462 6.452871 30.0442 -2.442034 5.197467 2.49497 0 
-10.2929 6.550093 30.28928 -3.514729 4.884271 1.724873 0 
-10.00313 6.720169 30.56022 -4.420301 4.337399 0.898406 0 
-11.58911 5.647673 30.7489 -1.32847 4.833414 3.741784 0 
-11.40863 6.491501 29.67551 -0.304113 5.193987 3.506469 0 
-11.17672 5.648091 30.98844 -2.625322 4.821582 2.995246 0 
-10.81264 5.734879 31.284 -3.770852 4.532743 2.078253 0 
-10.51758 5.903102 31.61879 -4.684119 4.000848 1.05918 0 
-11.83701 5.262501 31.10985 -1.419566 4.43428 4.167822 0 
-12.02636 5.733648 30.579 -0.3081442 4.706235 4.142607 0 
-11.40841 5.255068 31.36048 -2.816305 4.437883 3.384249 0 
-11.03439 5.336579 31.67675 -3.982439 4.185905 2.381407 0 
-10.738 5.502011 32.03917 -4.887489 3.693621 1.217688 0 
-12.33005 4.373249 31.78695 -1.55154 3.822805 4.692665 0 
-12.49562 5.050747 31.20403 -0.3267124 4.028366 4.80416 0 
-12.29376 5.358422 30.94031 -0.3485377 4.35845 4.502497 0 
-11.86628 4.352235 32.05529 -3.020679 3.91068 3.824762 0 
-11.47176 4.421156 32.41186 -4.257777 3.687164 2.702414 0 
-11.17486 4.575059 32.83102 -5.190633 3.174346 1.403335 0 
-12.82975 4.482687 31.62612 -0.3885672 3.600665 5.123688 0 
-13.28626 3.530477 32.17884 -0.3991147 3.047656 5.470594 0 
-12.74508 3.421643 32.32305 -1.636805 3.178488 5.115473 0 
-12.24794 3.393493 32.60158 -3.227217 3.248501 4.242808 0 
-11.8353 3.448317 32.99176 -4.52058 3.06522 3.018928 0 
-11.54073 3.581654 33.46183 -5.429457 2.643636 1.569071 0 
-13.42053 3.188927 32.33694 -0.4189824 2.622782 5.683022 0 
-12.97395 2.746426 32.60765 -1.765776 2.449295 5.459164 0 
-12.45657 2.717871 32.88972 -3.403924 2.557598 4.561254 0 
-12.03353 2.762322 33.29852 -4.727242 2.418177 3.273659 0 
-11.74162 2.87591 33.79846 -5.625897 2.092436 1.680307 0 
-13.54063 2.845501 32.47684 -0.4467967 2.227463 5.846832 0 
-13.81061 1.835995 32.78647 -0.4564061 1.600094 6.047555 0 
-13.21466 1.763587 32.89939 -1.822847 1.684371 5.721428 0 
-12.6743 1.740754 33.18338 -3.548444 1.731534 4.829708 0 
-12.23994 1.769626 33.61193 -4.910465 1.635891 3.480282 0 
-11.95212 1.847509 34.14508 -5.808701 1.366109 1.803515 0 
-13.93341 1.091041 32.92525 -0.4485462 1.00571 6.175825 0 
-13.35052 0.7657049 33.06084 -1.861894 0.9043335 5.870265 0 
-12.79629 0.7545806 33.34499 -3.622362 0.9764457 4.972158 0 
-12.35537 0.7672026 33.78482 -4.99914 0.9217402 3.597258 0 
-12.07053 0.8023466 34.33768 -5.883265 0.7841523 1.878229 0 
-13.96428 0.7994964 32.95995 -0.4820454 0.6967266 6.210587 0 
-13.97681 0.644402 32.974 -0.4850393 0.3550811 6.242335 0 
-13.36155 0.6170127 33.07385 -1.916861 0.3834438 5.913033 0 
-12.80617 0.6079663 33.35798 -3.655778 0.4018556 5.026604 0 
-12.36471 0.6181431 33.79873 -5.034681 0.3809027 3.64529 0 
-12.08013 0.6465528 34.35323 -5.919447 0.3424059 1.88782 0 
-13.99087 -0.4044854 32.98977 -0.4789192 -0.2657791 6.247493 0 
-13.37393 -0.3871852 33.08843 -1.892366 -0.3449996 5.929654 0 
-12.81724 -0.3814501 33.37253 -3.65883 -0.3841486 5.035018 0 
-12.37517 -0.3878404 33.81432 -5.046196 -0.36688 3.644448 0 
-12.0909 -0.4057318 34.37066 -5.934637 -0.3350745 1.868703 0 
-13.93346 -1.090678 32.9253 -0.4493807 -0.8338199 6.201126 0 
-13.27946 -1.381419 32.97668 -1.865099 -1.143355 5.828482 0 
-12.73257 -1.362511 33.26083 -3.606853 -1.170625 4.942684 0 
-12.2951 -1.3852 33.69475 -4.974708 -1.108411 3.581738 0 
-12.00863 -1.447329 34.23721 -5.862885 -0.9397873 1.877244 0 
-13.84968 -1.63687 32.83075 -0.4514455 -1.544204 6.062991 0 
-13.24928 -1.571162 32.94075 -1.845482 -1.672728 5.710979 0 
-12.70545 -1.550204 33.22484 -3.532415 -1.740154 4.828236 0 
-12.26943 -1.57597 33.65626 -4.895496 -1.652556 3.48122 0 
-11.98232 -1.646032 34.19436 -5.798347 -1.389505 1.795399 0 
-13.59598 -2.671258 32.54085 -0.4464545 -2.118513 5.887164 0 
-13.02349 -2.57581 32.66831 -1.770868 -2.351167 5.500341 0 
-12.50154 -2.54774 32.95094 -3.41189 -2.469407 4.604338 0 
-12.0762 -2.589524 33.36378 -4.747942 -2.338325 3.30597 0 
-11.78501 -2.697474 33.87039 -5.659001 -2.012381 1.677653 0 
-12.69492 -3.551539 32.25969 -1.633824 -3.241343 5.07747 0 
-13.41984 -3.190779 32.33614 -0.3910463 -2.610099 5.693793 0 
-12.20203 -3.523906 32.53724 -3.206332 -3.29655 4.223758 0 
-11.79163 -3.580691 32.92335 -4.496266 -3.116332 3.010281 0 
-11.49662 -3.717343 33.38707 -5.419423 -2.682471 1.553007 0 
-12.74729 -4.630789 31.52348 -0.3901875 -3.682402 5.065403 0 
-12.25458 -4.522679 31.68637 -1.538452 -3.92817 4.608553 0 
-11.79647 -4.503489 31.95238 -2.969295 -4.017186 3.754349 0 
-11.40516 -4.574566 32.30283 -4.199912 -3.790809 2.653489 0 
-11.10813 -4.730917 32.71309 -5.130589 -3.294565 1.364659 0 
-11.73412 -5.426497 30.96193 -1.368382 -4.633217 3.969155 0 
-12.49552 -5.050905 31.2039 -0.3028829 -4.089327 4.755207 0 
-11.31236 -5.422266 31.20813 -2.721914 -4.617645 3.222358 0 
-10.94249 -5.506037 31.51586 -3.885883 -4.349655 2.257055 0 
-10.64657 -5.672814 31.86676 -4.814373 -3.819263 1.156337 0 
-12.18262 -5.518477 30.79193 -0.3280049 -4.548939 4.312636 0 
-11.56987 -6.306217 29.92256 -0.3340239 -4.961406 3.830221 0 
-11.16343 -6.240123 30.08713 -1.278647 -5.118062 3.367283 0 
-10.77696 -6.254786 30.30411 -2.487574 -5.093621 2.654588 0 
-10.42948 -6.349485 30.56283 -3.581444 -4.790375 1.844382 0 
-10.13806 -6.519563 30.85058 -4.503644 -4.240314 0.9462098 0 
-10.60496 -6.91628 29.10203 -1.186187 -5.511898 2.722412 0 
-11.36994 -6.534808 29.61479 -0.2201081 -5.244731 3.449101 0 
-10.24947 -6.950169 29.28149 -2.318197 -5.396311 2.17092 0 
-9.922953 -7.053598 29.48746 -3.337461 -5.077431 1.51065 0 
-9.638461 -7.222439 29.71172 -4.227084 -4.552456 0.7534382 0 
-10.97524 -6.953285 28.95624 -0.3026212 -5.493339 3.024987 0 
-10.8161 -7.111091 28.66502 -0.2549485 -5.698671 2.625099 0 
-10.45485 -7.082207 28.80315 -1.110358 -5.710307 2.32237 0 
-10.10718 -7.121262 28.97054 -2.189452 -5.576931 1.822077 0 
-9.786163 -7.226787 29.16089 -3.202361 -5.235101 1.242737 0 
-9.503881 -7.394815 29.36706 -4.094161 -4.695302 0.617503 0 
-10.36506 -7.528741 27.70519 -0.2655048 -5.941636 2.003937 0 
-10.02808 -7.523221 27.81314 -1.083324 -5.915718 1.76794 0 
-9.70166 -7.576804 27.93889 -2.093203 -5.744367 1.381171 0 
-9.396006 -7.687811 28.07849 -3.054053 -5.389947 0.9473026 0 
-9.120691 -7.852767 28.22758 -3.917296 -4.865777 0.4835528 0 
-10.02915 -7.814491 26.71281 -0.2678604 -6.108343 1.431394 0 
-9.709141 -7.826477 26.78375 -1.048257 -6.053579 1.248372 0 
-9.397735 -7.890685 26.86431 -2.009697 -5.857407 0.9695855 0 
-9.103311 -8.005389 26.9523 -2.928053 -5.500648 0.6671302 0 
-8.833789 -8.167503 27.04537 -3.766244 -4.995396 0.3460627 0 
-13.23078 -3.661376 32.11297 -0.396874 -3.134171 5.421551 0 
-13.88378 -1.440126 32.86931 -0.4771371 -1.172736 6.1397 0 
-13.94741 0.9698343 17.059 -0.4712188 0.8339539 -6.197419 0 
-269 -7.98135 25.54594 -2.868341 -3.10504 0.2123705 0 
-269 -7.538087 27.67904 -2.868389 -2.932721 1.042295 0 
-269 -6.535759 29.61344 -2.868414 -2.542788 1.794914 0 
-269 -5.048704 31.20569 -2.86842 -1.964119 2.414218 0 
-269 -1.089333 32.92549 -2.869153 -0.4238535 3.083502 0 
-269 -3.187209 32.33769 -2.868759 -1.240166 2.854604 0 
-269 1.089333 32.92549 -2.868808 0.4240521 3.083418 0 
-269 3.187209 32.33769 -2.868415 1.239962 2.854679 0 
-269 5.048704 31.20569 -2.868418 1.964109 2.414174 0 
-269 6.535759 29.61344 -2.86835 2.542716 1.794807 0 
-269 7.538087 27.67904 -2.868298 2.932622 1.042265 0 
-269 7.98135 25.54594 -2.97081 3.108034 0.3732962 0 
-269 8 25 -3.005003 3.132523 -0.1070197 0 
-269 7.832673 23.37235 -2.902557 3.042734 -0.6866851 0 
-269 7.103082 21.31948 -2.868411 2.763334 -1.431812 0 
-269 5.846688 19.53958 -2.868866 2.27482 -2.12414 0 
-269 4.156672 18.16464 -2.869321 1.617164 -2.659307 0 
-269 2.158374 17.29666 -2.868995 0.8395109 -2.99703 0 
-269 0 17 -2.86854 -8.076429e-05 -3.112346 0 
-269 -2.158374 17.29666 -2.868415 -0.8396857 -2.996539 0 
-269 -4.156672 18.16464 -2.868418 -1.617103 -2.659183 0 
-269 -5.846688 19.53958 -2.868445 -2.274614 -2.124372 0 
-269 -7.103082 21.31948 -2.868438 -2.763478 -1.431907 0 
-269 -7.832673 23.37235 -2.868365 -3.046929 -0.6331303 0 
-269 6 25 -3.454948 -3.103013 2.648449e-09 0 
-269 5.706339 26.8541 -3.455347 -2.951015 -0.9591047 0 
-269 4.854102 21.47329 -3.455751 -2.510309 1.823846 0 
-269 5.706339 23.1459 -3.455347 -2.950916 0.9590702 0 
-269 4.854102 28.52671 -3.455316 -2.510506 -1.823649 0 
-269 3.526711 20.1459 -3.455749 -1.823844 2.510303 0 
-269 -5.706339 23.1459 -3.455348 2.951015 0.9591047 0 
-269 -5.706339 26.8541 -3.455347 2.950916 -0.9590702 0 
-269 -4.854102 28.52671 -3.455751 2.510309 -1.823846 0 
-269 1.854102 19.29366 -3.45575 -0.9588488 2.950997 0 
-269 -4.854102 21.47329 -3.455316 2.510506 1.823649 0 
-269 -3.526711 20.1459 -3.454875 1.823899 2.510381 0 
-269 -3.526711 29.8541 -3.455376 1.824058 -2.510199 0 
-269 3.526711 29.8541 -3.454939 -1.82386 -2.510395 0 
-269 0 19 -3.455312 -0.0002779216 3.102951 0 
-269 -1.854102 19.29366 -3.454873 0.9588927 2.951154 0 
-269 -6 25 -3.454948 3.103013 -2.648449e-09 0 
-269 1.854102 30.70634 -3.455377 -0.9586419 -2.951159 0 
-269 -1.854102 30.70634 -3.455378 0.9586432 -2.951165 0 
-269 0 31 -3.455749 -2.467015e-05 -3.102951 0 
5.706339 -1.854102 30.5 -4.353476 1.41453 -2.454148 0 
6 0 30.5 -4.577515 5.960464e-08 -2.454148 0 
4.854102 -3.526711 30.5 -3.703288 2.690595 -2.454148 0 
3.526711 -4.854102 30.5 -2.690595 3.703288 -2.454148 0 
1.854102 -5.706339 30.5 -1.41453 4.353476 -2.454148 0 
0 -6 30.5 -1.394749e-05 4.577517 -2.45421 0 
1.854102 5.706339 30.5 -1.41453 -4.353476 -2.454148 0 
0 6 30.5 -0.0001973957 -4.577547 -2.454357 0 
3.526711 4.854102 30.5 -2.690595 -3.703288 -2.454148 0 
4.854102 3.526711 30.5 -3.703288 -2.690595 -2.454148 0 
5.706339 1.854102 30.5 -4.353476 -1.41453 -2.454148 0 
-1.8475 -5.70848 24.34271 -2.158772 4.777879 0.1927812 0 
-1.854102 -5.706339 25.76346 -2.140223 4.7887 -0.2349384 0 
-1.854102 -5.706339 30.5 1.408042 4.356582 -2.473246 0 
-2.792353 -5.310627 27.79235 1.381842 5.708496 -1.445164 0 
-3.526711 -4.854102 28.52671 1.694869 5.326523 -1.865176 0 
-2 -5.656854 27 1.016378 5.976957 -0.8778434 0 
-3.526711 -4.854102 30.5 2.665752 3.726768 -2.501399 0 
-4.24264 -4.24264 29.24264 2.206298 4.653049 -2.327479 0 
-4.854102 -3.526711 29.8541 2.499883 3.99813 -2.666582 0 
-3.526711 4.854102 30.5 2.665752 -3.726768 -2.501399 0 
-4.854102 3.526711 30.5 3.665422 -2.798337 -2.491774 0 
-4.854102 3.526711 29.8541 2.498695 -3.997118 -2.667444 0 
-4.24264 4.24264 29.24264 2.205746 -4.653201 -2.327353 0 
-1.854102 5.706339 30.5 1.408263 -4.356548 -2.473596 0 
-3.526711 4.854102 28.52671 1.694869 -5.326523 -1.865176 0 
-2.792353 5.310627 27.79235 1.389208 -5.722445 -1.412673 0 
-2 5.656854 27 1.2359 -5.989623 -0.8061656 0 
-1.854102 5.706339 24.23654 -2.146126 -4.789641 0.2330842 0 
-1.8475 5.70848 25.65729 -2.165015 -4.778856 -0.1909344 0 
-2.792353 5.310627 22.20765 1.384109 -5.710063 1.391132 0 
-3.526711 4.854102 21.47329 1.783078 -5.275617 1.81259 0 
-2 5.656854 23 1.015715 -5.977251 0.8751813 0 
-4.24264 4.24264 20.75736 2.200956 -4.667746 2.20613 0 
-4.854102 3.526711 20.1459 2.551631 -3.94027 2.574522 0 
-5.346039 2.723943 19.65396 2.865579 -3.063182 2.872749 0 
-5.706339 1.854102 19.29366 3.089408 -2.120971 3.106453 0 
-5.92613 0.9386068 19.07387 3.23962 -1.067406 3.250187 0 
-6 0 19 3.287488 -0.000628382 3.311822 0 
-5.92613 -0.9386068 19.07387 3.238785 1.067898 3.250139 0 
-5.706339 -1.854102 19.29366 3.088332 2.120076 3.106828 0 
-5.346039 -2.723943 19.65396 2.864906 3.06347 2.872655 0 
-4.854102 -3.526711 20.1459 2.550444 3.939257 2.575383 0 
-4.24264 -4.24264 20.75736 2.200404 4.667897 2.206004 0 
-3.526711 -4.854102 21.47329 1.783079 5.275617 1.81259 0 
-2.792353 -5.310627 22.20765 1.391475 5.724012 1.358641 0 
-2 -5.656854 23 1.234866 5.990043 0.8035477 0 
-5.5 2.397916 30.5 1.452491 -2.419765 -5.436079 0 
-5.5 -2.397916 30.5 1.452378 2.420069 -5.435958 0 
-4.854102 -3.526711 30.5 3.665422 2.798337 -2.491774 0 
-2 -6 25 -2.684508 4.562273 -0.009000678 0 
-2 -5.960618 24.31367 -2.575238 4.636655 0.6325011 0 
-2 -5.706339 23.1459 -2.744831 4.104297 1.259751 0 
-2 -5.706339 26.8541 -2.788213 4.168969 -1.211729 0 
-2 -5.960618 25.68633 -2.577011 4.636955 -0.6064162 0 
-2 6 25 -2.684508 -4.562273 0.009000678 0 
-2 5.960618 25.68633 -2.575238 -4.636655 -0.6325011 0 
-2 5.706339 26.8541 -2.744831 -4.104297 -1.259751 0 
-2 5.706339 23.1459 -2.788213 -4.168969 1.211729 0 
-2 5.960618 24.31367 -2.577011 -4.636955 0.6064162 0 
-5.344096 1.854102 30.70634 1.556201 -1.575915 -5.676894 0 
-5.31936 1.738626 30.74258 1.598836 -1.27221 -5.74713 0 
-5.201985 0.8805942 30.93503 1.671109 -0.7320616 -5.832153 0 
-5.317139 -1.727643 30.74589 1.599482 1.267579 -5.748051 0 
-5.344459 -1.85571 30.70582 1.556866 1.574424 -5.677483 0 
-5.16786 0 31 1.68948 -0.0007241666 -5.867996 0 
-5.201703 -0.8771062 30.93554 1.670779 0.7284315 -5.832393 0 
0 0 34.10516 -0.004460014 1.713634e-07 -4.598995 0 
3 0 1 2 0 
3 3 0 4 0 
3 5 3 6 0 
3 7 5 8 0 
3 9 7 10 0 
3 11 9 12 0 
3 13 11 14 0 
3 15 13 16 0 
3 17 15 18 0 
3 19 17 20 0 
3 21 19 22 0 
3 23 21 24 0 
3 25 23 26 0 
3 27 25 28 0 
3 29 27 30 0 
3 31 29 32 0 
3 33 31 34 0 
3 35 33 36 0 
3 37 35 38 0 
3 1 37 39 0 
3 39 2 1 0 
3 38 39 37 0 
3 36 38 35 0 
3 34 36 33 0 
3 32 34 31 0 
3 30 32 29 0 
3 28 30 27 0 
3 26 28 25 0 
3 24 26 23 0 
3 22 24 21 0 
3 20 22 19 0 
3 18 20 17 0 
3 16 18 15 0 
3 14 16 13 0 
3 12 14 11 0 
3 10 12 9 0 
3 8 10 7 0 
3 6 8 5 0 
3 4 6 3 0 
3 2 4 0 0 
3 40 30 28 0 
3 41 32 30 0 
3 42 12 10 0 
3 43 44 26 0 
3 45 28 26 0 
3 30 40 41 0 
3 41 46 34 0 
3 46 39 38 0 
3 10 47 42 0 
3 42 48 14 0 
3 48 49 16 0 
3 49 50 18 0 
3 26 44 45 0 
3 34 32 41 0 
3 38 36 46 0 
3 46 47 2 0 
3 47 6 4 0 
3 14 12 42 0 
3 18 16 49 0 
3 28 45 40 0 
3 2 39 46 0 
3 47 8 6 0 
3 16 14 48 0 
3 51 22 20 0 
3 36 34 46 0 
3 10 8 47 0 
3 52 20 18 0 
3 20 52 51 0 
3 4 2 47 0 
3 51 53 22 0 
3 53 43 24 0 
3 18 50 52 0 
3 26 24 43 0 
3 24 22 53 0 
3 54 41 40 0 
3 55 40 45 0 
3 56 45 44 0 
3 57 44 43 0 
3 58 43 53 0 
3 59 53 51 0 
3 60 51 52 0 
3 61 52 50 0 
3 62 50 49 0 
3 63 49 48 0 
3 64 48 42 0 
3 42 65 64 0 
3 48 64 63 0 
3 49 63 62 0 
3 50 62 61 0 
3 52 61 60 0 
3 51 60 59 0 
3 53 59 58 0 
3 43 58 57 0 
3 44 57 56 0 
3 45 56 55 0 
3 40 55 54 0 
3 46 66 67 0 
3 67 47 46 0 
3 54 68 46 0 
3 69 66 46 0 
3 46 68 69 0 
3 46 41 54 0 
3 70 71 47 0 
3 65 42 47 0 
3 47 71 65 0 
3 47 67 70 0 
3 72 73 74 0 
3 72 75 73 0 
3 76 77 78 0 
3 72 79 75 0 
3 72 76 80 0 
3 70 81 82 0 
3 76 72 77 0 
3 80 79 72 0 
3 70 83 84 0 
3 70 85 81 0 
3 69 70 67 0 
3 74 86 72 0 
3 82 83 70 0 
3 67 66 69 0 
3 84 76 70 0 
3 78 70 76 0 
3 69 85 70 0 
3 87 88 89 0 
3 90 91 87 0 
3 88 92 93 0 
3 94 95 96 0 
3 68 97 95 0 
3 91 90 98 0 
3 93 89 88 0 
3 92 99 96 0 
3 95 94 68 0 
3 68 35 100 0 
3 35 37 101 0 
3 3 71 102 0 
3 103 104 105 0 
3 106 107 104 0 
3 89 90 87 0 
3 96 99 94 0 
3 100 108 68 0 
3 101 109 35 0 
3 71 110 102 0 
3 71 111 112 0 
3 111 113 105 0 
3 104 103 106 0 
3 96 93 92 0 
3 109 100 35 0 
3 112 110 71 0 
3 105 113 103 0 
3 114 115 107 0 
3 116 98 117 0 
3 108 97 68 0 
3 105 112 111 0 
3 107 106 114 0 
3 118 119 120 0 
3 119 121 117 0 
3 101 37 1 0 
3 98 116 91 0 
3 65 71 7 0 
3 114 118 115 0 
3 117 120 119 0 
3 1 122 123 0 
3 1 124 125 0 
3 68 33 35 0 
3 54 55 27 0 
3 55 56 25 0 
3 59 19 21 0 
3 63 13 15 0 
3 64 11 13 0 
3 65 9 11 0 
3 71 5 7 0 
3 120 115 118 0 
3 0 102 124 0 
3 125 122 1 0 
3 68 31 33 0 
3 54 29 31 0 
3 25 27 55 0 
3 21 58 59 0 
3 60 61 17 0 
3 13 63 64 0 
3 7 9 65 0 
3 124 1 0 0 
3 117 121 116 0 
3 27 29 54 0 
3 56 57 23 0 
3 58 21 23 0 
3 17 19 60 0 
3 61 62 15 0 
3 11 64 65 0 
3 102 0 3 0 
3 31 68 54 0 
3 23 57 58 0 
3 15 17 61 0 
3 3 5 71 0 
3 23 25 56 0 
3 15 62 63 0 
3 59 60 19 0 
3 1 123 101 0 
3 71 70 78 0 
3 111 78 77 0 
3 113 77 72 0 
3 103 72 86 0 
3 88 83 82 0 
3 92 82 81 0 
3 99 81 85 0 
3 94 85 69 0 
3 114 126 127 0 
3 114 128 126 0 
3 114 129 128 0 
3 114 130 131 0 
3 131 129 114 0 
3 119 118 132 0 
3 118 133 132 0 
3 118 134 133 0 
3 118 127 134 0 
3 119 135 136 0 
3 136 121 119 0 
3 119 137 135 0 
3 116 138 139 0 
3 116 140 138 0 
3 121 141 140 0 
3 140 116 121 0 
3 91 142 143 0 
3 91 116 144 0 
3 144 142 91 0 
3 87 145 146 0 
3 87 91 147 0 
3 147 148 87 0 
3 148 145 87 0 
3 83 149 150 0 
3 83 151 149 0 
3 83 152 153 0 
3 153 154 83 0 
3 154 151 83 0 
3 83 88 155 0 
3 88 156 155 0 
3 88 157 156 0 
3 88 87 158 0 
3 158 159 88 0 
3 159 160 88 0 
3 160 157 88 0 
3 155 152 83 0 
3 84 161 162 0 
3 84 163 161 0 
3 84 164 163 0 
3 84 150 164 0 
3 76 165 166 0 
3 76 167 165 0 
3 76 162 168 0 
3 168 167 76 0 
3 79 169 170 0 
3 80 171 169 0 
3 169 79 80 0 
3 80 166 171 0 
3 75 172 173 0 
3 75 79 174 0 
3 174 172 75 0 
3 79 175 174 0 
3 75 176 177 0 
3 177 73 75 0 
3 177 178 73 0 
3 74 179 180 0 
3 74 73 181 0 
3 181 179 74 0 
3 106 182 130 0 
3 106 183 182 0 
3 106 184 183 0 
3 106 86 185 0 
3 86 186 185 0 
3 185 187 106 0 
3 86 188 189 0 
3 189 190 86 0 
3 190 186 86 0 
3 86 74 191 0 
3 191 192 86 0 
3 192 193 86 0 
3 193 188 86 0 
3 187 184 106 0 
3 130 114 106 0 
3 180 191 74 0 
3 178 181 73 0 
3 173 176 75 0 
3 170 175 79 0 
3 166 80 76 0 
3 162 76 84 0 
3 150 84 83 0 
3 146 158 87 0 
3 143 147 91 0 
3 139 144 116 0 
3 136 141 121 0 
3 132 137 119 0 
3 127 118 114 0 
3 69 68 94 0 
3 85 94 99 0 
3 81 99 92 0 
3 82 92 88 0 
3 86 106 103 0 
3 72 103 113 0 
3 77 113 111 0 
3 78 111 71 0 
3 194 123 122 0 
3 195 122 125 0 
3 196 125 124 0 
3 197 124 102 0 
3 198 102 110 0 
3 199 110 112 0 
3 200 112 105 0 
3 201 105 104 0 
3 202 104 107 0 
3 203 107 115 0 
3 204 115 120 0 
3 205 120 117 0 
3 206 117 98 0 
3 207 98 90 0 
3 208 90 89 0 
3 209 89 93 0 
3 210 93 96 0 
3 211 96 95 0 
3 212 95 97 0 
3 213 97 108 0 
3 214 108 100 0 
3 215 100 109 0 
3 216 109 101 0 
3 217 101 123 0 
3 123 194 217 0 
3 101 217 216 0 
3 109 216 215 0 
3 100 215 214 0 
3 108 214 213 0 
3 97 213 212 0 
3 95 212 211 0 
3 96 211 210 0 
3 93 210 209 0 
3 89 209 208 0 
3 90 208 207 0 
3 98 207 206 0 
3 117 206 205 0 
3 120 205 204 0 
3 115 204 203 0 
3 107 203 202 0 
3 104 202 201 0 
3 105 201 200 0 
3 112 200 199 0 
3 110 199 198 0 
3 102 198 197 0 
3 124 197 196 0 
3 125 196 195 0 
3 122 195 194 0 
3 206 207 218 0 
3 207 208 219 0 
3 219 218 207 0 
3 208 209 220 0 
3 210 211 221 0 
3 211 212 222 0 
3 220 219 208 0 
3 209 210 223 0 
3 222 221 211 0 
3 212 213 224 0 
3 223 220 209 0 
3 224 222 212 0 
3 213 214 225 0 
3 214 215 226 0 
3 221 223 210 0 
3 226 225 214 0 
3 215 216 227 0 
3 216 217 228 0 
3 225 224 213 0 
3 228 227 216 0 
3 227 226 215 0 
3 217 194 229 0 
3 229 228 217 0 
3 195 230 229 0 
3 196 231 230 0 
3 197 232 231 0 
3 198 233 232 0 
3 199 234 233 0 
3 200 235 234 0 
3 201 236 235 0 
3 205 237 238 0 
3 206 239 237 0 
3 229 194 195 0 
3 231 196 197 0 
3 233 198 199 0 
3 235 200 201 0 
3 202 240 236 0 
3 203 241 240 0 
3 204 238 241 0 
3 237 205 206 0 
3 230 195 196 0 
3 234 199 200 0 
3 240 202 203 0 
3 238 204 205 0 
3 232 197 198 0 
3 241 203 204 0 
3 236 201 202 0 
3 218 239 206 0 
3 242 229 230 0 
3 243 230 231 0 
3 244 231 232 0 
3 245 232 233 0 
3 246 233 234 0 
3 247 234 235 0 
3 248 235 236 0 
3 249 236 240 0 
3 250 240 241 0 
3 251 241 238 0 
3 252 238 237 0 
3 218 253 254 0 
3 255 237 239 0 
3 239 254 255 0 
3 253 218 219 0 
3 256 219 220 0 
3 257 220 223 0 
3 258 223 221 0 
3 259 221 222 0 
3 260 222 224 0 
3 261 224 225 0 
3 262 225 226 0 
3 263 226 227 0 
3 264 227 228 0 
3 265 228 229 0 
3 229 242 265 0 
3 228 265 264 0 
3 227 264 263 0 
3 226 263 262 0 
3 225 262 261 0 
3 224 261 260 0 
3 222 260 259 0 
3 221 259 258 0 
3 223 258 257 0 
3 220 257 256 0 
3 219 256 253 0 
3 254 239 218 0 
3 237 255 252 0 
3 238 252 251 0 
3 241 251 250 0 
3 240 250 249 0 
3 236 249 248 0 
3 235 248 247 0 
3 234 247 246 0 
3 233 246 245 0 
3 232 245 244 0 
3 231 244 243 0 
3 230 243 242 0 
3 266 254 253 0 
3 266 267 255 0 
3 268 264 265 0 
3 269 263 264 0 
3 255 254 266 0 
3 267 270 252 0 
3 271 265 242 0 
3 264 268 269 0 
3 272 262 263 0 
3 273 261 262 0 
3 274 259 260 0 
3 275 258 259 0 
3 276 257 258 0 
3 277 256 257 0 
3 278 253 256 0 
3 252 255 267 0 
3 279 280 248 0 
3 280 281 247 0 
3 265 271 268 0 
3 262 272 273 0 
3 282 260 261 0 
3 259 274 275 0 
3 257 276 277 0 
3 253 278 266 0 
3 247 248 280 0 
3 281 283 246 0 
3 263 269 272 0 
3 260 282 274 0 
3 256 277 278 0 
3 270 284 251 0 
3 246 247 281 0 
3 283 285 245 0 
3 285 286 244 0 
3 286 287 243 0 
3 261 273 282 0 
3 251 252 270 0 
3 284 288 250 0 
3 288 279 249 0 
3 245 246 283 0 
3 243 244 286 0 
3 258 275 276 0 
3 249 250 288 0 
3 244 245 285 0 
3 287 289 242 0 
3 250 251 284 0 
3 242 243 287 0 
3 248 249 279 0 
3 242 289 271 0 
3 290 289 287 0 
3 291 287 286 0 
3 292 286 285 0 
3 293 285 283 0 
3 294 283 281 0 
3 295 281 280 0 
3 296 280 279 0 
3 297 279 288 0 
3 298 288 284 0 
3 299 284 270 0 
3 300 270 267 0 
3 301 267 266 0 
3 302 266 278 0 
3 303 278 277 0 
3 304 277 276 0 
3 305 276 275 0 
3 306 275 274 0 
3 307 274 282 0 
3 308 282 273 0 
3 309 273 272 0 
3 310 272 269 0 
3 311 269 268 0 
3 312 268 271 0 
3 313 271 289 0 
3 289 290 313 0 
3 271 313 312 0 
3 268 312 311 0 
3 269 311 310 0 
3 272 310 309 0 
3 273 309 308 0 
3 282 308 307 0 
3 274 307 306 0 
3 275 306 305 0 
3 276 305 304 0 
3 277 304 303 0 
3 278 303 302 0 
3 266 302 301 0 
3 267 301 300 0 
3 270 300 299 0 
3 284 299 298 0 
3 288 298 297 0 
3 279 297 296 0 
3 280 296 295 0 
3 281 295 294 0 
3 283 294 293 0 
3 285 293 292 0 
3 286 292 291 0 
3 287 291 290 0 
3 302 303 314 0 
3 303 304 315 0 
3 315 314 303 0 
3 304 305 316 0 
3 306 307 317 0 
3 307 308 318 0 
3 316 315 304 0 
3 305 306 319 0 
3 318 317 307 0 
3 308 309 320 0 
3 319 316 305 0 
3 320 318 308 0 
3 309 310 321 0 
3 310 311 322 0 
3 311 312 323 0 
3 312 313 324 0 
3 317 319 306 0 
3 322 321 310 0 
3 324 323 312 0 
3 313 290 325 0 
3 321 320 309 0 
3 325 324 313 0 
3 323 322 311 0 
3 291 326 325 0 
3 292 327 326 0 
3 293 328 327 0 
3 294 329 328 0 
3 295 330 329 0 
3 296 331 330 0 
3 297 332 331 0 
3 301 333 334 0 
3 302 335 333 0 
3 325 290 291 0 
3 327 292 293 0 
3 329 294 295 0 
3 331 296 297 0 
3 298 336 332 0 
3 299 337 336 0 
3 300 334 337 0 
3 333 301 302 0 
3 326 291 292 0 
3 330 295 296 0 
3 336 298 299 0 
3 334 300 301 0 
3 328 293 294 0 
3 337 299 300 0 
3 332 297 298 0 
3 314 335 302 0 
3 338 325 326 0 
3 339 326 327 0 
3 340 327 328 0 
3 341 328 329 0 
3 342 329 330 0 
3 343 330 331 0 
3 344 331 332 0 
3 345 332 336 0 
3 346 336 337 0 
3 347 337 334 0 
3 348 334 333 0 
3 314 349 350 0 
3 351 333 335 0 
3 335 350 351 0 
3 349 314 315 0 
3 352 315 316 0 
3 353 316 319 0 
3 354 319 317 0 
3 355 317 318 0 
3 356 318 320 0 
3 357 320 321 0 
3 358 321 322 0 
3 359 322 323 0 
3 360 323 324 0 
3 361 324 325 0 
3 325 338 361 0 
3 324 361 360 0 
3 323 360 359 0 
3 322 359 358 0 
3 321 358 357 0 
3 320 357 356 0 
3 318 356 355 0 
3 317 355 354 0 
3 319 354 353 0 
3 316 353 352 0 
3 315 352 349 0 
3 350 335 314 0 
3 333 351 348 0 
3 334 348 347 0 
3 337 347 346 0 
3 336 346 345 0 
3 332 345 344 0 
3 331 344 343 0 
3 330 343 342 0 
3 329 342 341 0 
3 328 341 340 0 
3 327 340 339 0 
3 326 339 338 0 
3 362 350 349 0 
3 362 363 351 0 
3 364 360 361 0 
3 365 359 360 0 
3 351 350 362 0 
3 363 366 348 0 
3 367 361 338 0 
3 360 364 365 0 
3 368 358 359 0 
3 369 357 358 0 
3 370 355 356 0 
3 371 354 355 0 
3 372 353 354 0 
3 373 352 353 0 
3 374 349 352 0 
3 348 351 363 0 
3 375 376 344 0 
3 376 377 343 0 
3 361 367 364 0 
3 358 368 369 0 
3 378 356 357 0 
3 355 370 371 0 
3 353 372 373 0 
3 349 374 362 0 
3 343 344 376 0 
3 377 379 342 0 
3 359 365 368 0 
3 356 378 370 0 
3 352 373 374 0 
3 366 380 347 0 
3 342 343 377 0 
3 379 381 341 0 
3 381 382 340 0 
3 382 383 339 0 
3 357 369 378 0 
3 347 348 366 0 
3 380 384 346 0 
3 384 375 345 0 
3 341 342 379 0 
3 339 340 382 0 
3 354 371 372 0 
3 345 346 384 0 
3 340 341 381 0 
3 383 385 338 0 
3 346 347 380 0 
3 338 339 383 0 
3 344 345 375 0 
3 338 385 367 0 
3 386 385 383 0 
3 387 383 382 0 
3 388 382 381 0 
3 389 381 379 0 
3 390 379 377 0 
3 391 377 376 0 
3 392 376 375 0 
3 393 375 384 0 
3 394 384 380 0 
3 395 380 366 0 
3 396 366 363 0 
3 397 363 362 0 
3 398 362 374 0 
3 399 374 373 0 
3 400 373 372 0 
3 401 372 371 0 
3 402 371 370 0 
3 403 370 378 0 
3 404 378 369 0 
3 405 369 368 0 
3 406 368 365 0 
3 407 365 364 0 
3 408 364 367 0 
3 409 367 385 0 
3 385 386 409 0 
3 367 409 408 0 
3 364 408 407 0 
3 365 407 406 0 
3 368 406 405 0 
3 369 405 404 0 
3 378 404 403 0 
3 370 403 402 0 
3 371 402 401 0 
3 372 401 400 0 
3 373 400 399 0 
3 374 399 398 0 
3 362 398 397 0 
3 363 397 396 0 
3 366 396 395 0 
3 380 395 394 0 
3 384 394 393 0 
3 375 393 392 0 
3 376 392 391 0 
3 377 391 390 0 
3 379 390 389 0 
3 381 389 388 0 
3 382 388 387 0 
3 383 387 386 0 
3 393 410 411 0 
3 394 412 410 0 
3 395 396 413 0 
3 401 402 414 0 
3 407 408 415 0 
3 390 391 416 0 
3 391 392 411 0 
3 410 393 394 0 
3 412 394 395 0 
3 399 417 418 0 
3 400 419 417 0 
3 419 400 401 0 
3 402 403 420 0 
3 403 404 421 0 
3 405 422 421 0 
3 406 423 422 0 
3 423 406 407 0 
3 389 390 424 0 
3 411 416 391 0 
3 413 412 395 0 
3 417 399 400 0 
3 420 414 402 0 
3 421 404 405 0 
3 415 423 407 0 
3 388 425 426 0 
3 425 388 389 0 
3 411 392 393 0 
3 396 397 427 0 
3 414 419 401 0 
3 422 405 406 0 
3 408 409 428 0 
3 409 386 429 0 
3 387 426 429 0 
3 424 425 389 0 
3 427 413 396 0 
3 397 398 418 0 
3 421 420 403 0 
3 429 428 409 0 
3 426 387 388 0 
3 418 427 397 0 
3 428 415 408 0 
3 416 424 390 0 
3 429 386 387 0 
3 418 398 399 0 
3 430 431 432 0 
3 430 433 434 0 
3 435 434 436 0 
3 437 436 438 0 
3 186 190 439 0 
3 433 432 440 0 
3 440 441 433 0 
3 433 441 442 0 
3 434 442 443 0 
3 436 443 444 0 
3 438 444 185 0 
3 444 187 185 0 
3 445 441 446 0 
3 441 445 447 0 
3 442 447 448 0 
3 443 448 449 0 
3 187 444 449 0 
3 450 445 451 0 
3 445 452 451 0 
3 445 450 453 0 
3 447 453 454 0 
3 448 454 455 0 
3 184 449 455 0 
3 456 450 457 0 
3 450 456 458 0 
3 453 458 459 0 
3 454 459 460 0 
3 183 455 460 0 
3 461 456 462 0 
3 456 463 462 0 
3 456 461 464 0 
3 458 464 465 0 
3 459 465 466 0 
3 182 460 466 0 
3 467 461 468 0 
3 461 467 469 0 
3 464 469 470 0 
3 465 470 471 0 
3 130 466 471 0 
3 472 467 473 0 
3 467 472 474 0 
3 469 474 475 0 
3 470 475 476 0 
3 131 471 476 0 
3 477 472 478 0 
3 472 477 479 0 
3 474 479 480 0 
3 475 480 481 0 
3 129 476 481 0 
3 482 477 483 0 
3 477 482 484 0 
3 479 484 485 0 
3 480 485 486 0 
3 486 126 128 0 
3 482 487 488 0 
3 488 489 482 0 
3 482 489 490 0 
3 484 490 491 0 
3 485 491 492 0 
3 492 134 127 0 
3 127 486 492 0 
3 493 494 495 0 
3 489 495 496 0 
3 490 496 497 0 
3 491 497 498 0 
3 134 492 498 0 
3 499 495 494 0 
3 495 499 500 0 
3 496 500 501 0 
3 497 501 502 0 
3 133 498 502 0 
3 499 503 504 0 
3 504 505 499 0 
3 499 505 506 0 
3 500 506 507 0 
3 501 507 508 0 
3 508 135 137 0 
3 137 502 508 0 
3 509 510 511 0 
3 505 511 512 0 
3 506 512 513 0 
3 507 513 514 0 
3 135 508 514 0 
3 510 515 516 0 
3 511 516 517 0 
3 512 517 518 0 
3 513 518 519 0 
3 136 514 519 0 
3 520 516 521 0 
3 516 515 521 0 
3 516 520 522 0 
3 517 522 523 0 
3 518 523 524 0 
3 140 141 519 0 
3 525 526 520 0 
3 520 526 527 0 
3 522 527 528 0 
3 523 528 529 0 
3 138 140 524 0 
3 526 525 530 0 
3 526 531 532 0 
3 527 532 533 0 
3 528 533 534 0 
3 139 138 529 0 
3 535 536 531 0 
3 531 536 537 0 
3 532 537 538 0 
3 533 538 539 0 
3 539 142 144 0 
3 144 534 539 0 
3 540 541 536 0 
3 536 541 542 0 
3 537 542 543 0 
3 538 543 544 0 
3 143 142 539 0 
3 541 540 545 0 
3 541 546 547 0 
3 542 547 548 0 
3 543 548 549 0 
3 544 549 147 0 
3 549 148 147 0 
3 546 545 550 0 
3 550 551 546 0 
3 546 551 552 0 
3 547 552 553 0 
3 548 553 554 0 
3 145 148 549 0 
3 551 555 556 0 
3 551 557 558 0 
3 552 558 559 0 
3 553 559 560 0 
3 146 145 554 0 
3 557 556 561 0 
3 561 562 557 0 
3 557 562 563 0 
3 558 563 564 0 
3 559 564 565 0 
3 565 159 158 0 
3 158 560 565 0 
3 562 566 567 0 
3 562 568 569 0 
3 563 569 570 0 
3 564 570 571 0 
3 160 159 565 0 
3 568 567 572 0 
3 568 573 574 0 
3 569 574 575 0 
3 570 575 576 0 
3 157 160 571 0 
3 577 573 578 0 
3 573 572 578 0 
3 573 577 579 0 
3 574 579 580 0 
3 575 580 581 0 
3 156 157 576 0 
3 577 582 583 0 
3 577 584 585 0 
3 579 585 586 0 
3 580 586 587 0 
3 155 156 581 0 
3 588 584 583 0 
3 584 588 589 0 
3 585 589 590 0 
3 586 590 591 0 
3 155 587 591 0 
3 592 588 593 0 
3 588 592 594 0 
3 589 594 595 0 
3 590 595 596 0 
3 152 591 596 0 
3 597 592 598 0 
3 592 597 599 0 
3 594 599 600 0 
3 595 600 601 0 
3 153 596 601 0 
3 602 597 603 0 
3 597 602 604 0 
3 599 604 605 0 
3 600 605 606 0 
3 154 601 606 0 
3 607 602 608 0 
3 602 607 609 0 
3 604 609 610 0 
3 605 610 611 0 
3 151 606 611 0 
3 612 607 613 0 
3 607 612 614 0 
3 609 614 615 0 
3 610 615 616 0 
3 611 616 150 0 
3 616 164 150 0 
3 617 612 618 0 
3 612 617 619 0 
3 614 619 620 0 
3 615 620 621 0 
3 164 616 621 0 
3 622 617 623 0 
3 617 622 624 0 
3 619 624 625 0 
3 620 625 626 0 
3 163 621 626 0 
3 627 622 628 0 
3 622 629 628 0 
3 622 627 630 0 
3 624 630 631 0 
3 625 631 632 0 
3 626 632 162 0 
3 632 168 162 0 
3 633 634 635 0 
3 627 635 636 0 
3 630 636 637 0 
3 631 637 638 0 
3 168 632 638 0 
3 635 634 639 0 
3 639 640 635 0 
3 635 640 641 0 
3 636 641 642 0 
3 637 642 643 0 
3 167 638 643 0 
3 644 645 646 0 
3 640 646 647 0 
3 641 647 648 0 
3 642 648 649 0 
3 649 171 166 0 
3 166 643 649 0 
3 646 645 650 0 
3 650 651 646 0 
3 646 651 652 0 
3 647 652 653 0 
3 648 653 654 0 
3 171 649 654 0 
3 655 656 657 0 
3 651 657 658 0 
3 652 658 659 0 
3 653 659 660 0 
3 169 654 660 0 
3 656 661 662 0 
3 657 662 663 0 
3 658 663 664 0 
3 659 664 665 0 
3 660 665 175 0 
3 665 174 175 0 
3 662 661 666 0 
3 666 667 662 0 
3 662 667 668 0 
3 663 668 669 0 
3 664 669 670 0 
3 172 174 665 0 
3 671 672 667 0 
3 667 672 673 0 
3 668 673 674 0 
3 669 674 675 0 
3 173 172 670 0 
3 676 677 672 0 
3 672 677 678 0 
3 673 678 679 0 
3 674 679 680 0 
3 675 680 176 0 
3 680 177 176 0 
3 681 677 682 0 
3 677 676 682 0 
3 677 681 683 0 
3 678 683 684 0 
3 679 684 685 0 
3 178 177 680 0 
3 686 687 681 0 
3 681 687 688 0 
3 683 688 689 0 
3 684 689 690 0 
3 181 178 685 0 
3 691 687 692 0 
3 687 686 692 0 
3 687 691 693 0 
3 688 693 694 0 
3 689 694 695 0 
3 179 181 690 0 
3 691 696 697 0 
3 691 698 699 0 
3 693 699 700 0 
3 694 700 701 0 
3 180 179 695 0 
3 702 698 703 0 
3 698 697 703 0 
3 698 702 704 0 
3 699 704 705 0 
3 700 705 706 0 
3 701 706 191 0 
3 706 192 191 0 
3 702 707 708 0 
3 702 709 710 0 
3 704 710 711 0 
3 705 711 712 0 
3 193 192 706 0 
3 709 708 713 0 
3 709 714 715 0 
3 710 715 716 0 
3 711 716 717 0 
3 188 193 712 0 
3 714 713 718 0 
3 714 719 720 0 
3 715 720 721 0 
3 716 721 722 0 
3 189 188 717 0 
3 719 718 431 0 
3 719 430 435 0 
3 720 435 437 0 
3 721 437 439 0 
3 190 189 722 0 
3 722 439 190 0 
3 439 722 721 0 
3 437 721 720 0 
3 435 720 719 0 
3 431 430 719 0 
3 717 722 189 0 
3 722 717 716 0 
3 721 716 715 0 
3 720 715 714 0 
3 718 719 714 0 
3 712 717 188 0 
3 717 712 711 0 
3 716 711 710 0 
3 715 710 709 0 
3 713 714 709 0 
3 706 712 193 0 
3 712 706 705 0 
3 711 705 704 0 
3 710 704 702 0 
3 708 709 702 0 
3 191 180 701 0 
3 706 701 700 0 
3 705 700 699 0 
3 704 699 698 0 
3 703 707 702 0 
3 695 701 180 0 
3 701 695 694 0 
3 700 694 693 0 
3 699 693 691 0 
3 697 698 691 0 
3 690 695 179 0 
3 695 690 689 0 
3 694 689 688 0 
3 693 688 687 0 
3 692 696 691 0 
3 685 690 181 0 
3 690 685 684 0 
3 689 684 683 0 
3 688 683 681 0 
3 681 723 686 0 
3 680 685 178 0 
3 685 680 679 0 
3 684 679 678 0 
3 683 678 677 0 
3 682 723 681 0 
3 176 173 675 0 
3 680 675 674 0 
3 679 674 673 0 
3 678 673 672 0 
3 672 671 676 0 
3 670 675 173 0 
3 675 670 669 0 
3 674 669 668 0 
3 673 668 667 0 
3 667 724 671 0 
3 665 670 172 0 
3 670 665 664 0 
3 669 664 663 0 
3 668 663 662 0 
3 666 724 667 0 
3 175 170 660 0 
3 665 660 659 0 
3 664 659 658 0 
3 663 658 657 0 
3 662 657 656 0 
3 660 170 169 0 
3 660 654 653 0 
3 659 653 652 0 
3 658 652 651 0 
3 657 651 655 0 
3 654 169 171 0 
3 654 649 648 0 
3 653 648 647 0 
3 652 647 646 0 
3 650 655 651 0 
3 166 165 643 0 
3 649 643 642 0 
3 648 642 641 0 
3 647 641 640 0 
3 646 640 644 0 
3 643 165 167 0 
3 643 638 637 0 
3 642 637 636 0 
3 641 636 635 0 
3 639 644 640 0 
3 638 167 168 0 
3 638 632 631 0 
3 637 631 630 0 
3 636 630 627 0 
3 635 627 633 0 
3 162 161 626 0 
3 632 626 625 0 
3 631 625 624 0 
3 630 624 622 0 
3 628 633 627 0 
3 626 161 163 0 
3 626 621 620 0 
3 625 620 619 0 
3 624 619 617 0 
3 623 629 622 0 
3 621 163 164 0 
3 621 616 615 0 
3 620 615 614 0 
3 619 614 612 0 
3 618 623 617 0 
3 150 149 611 0 
3 616 611 610 0 
3 615 610 609 0 
3 614 609 607 0 
3 613 618 612 0 
3 611 149 151 0 
3 611 606 605 0 
3 610 605 604 0 
3 609 604 602 0 
3 608 613 607 0 
3 606 151 154 0 
3 606 601 600 0 
3 605 600 599 0 
3 604 599 597 0 
3 603 608 602 0 
3 601 154 153 0 
3 601 596 595 0 
3 600 595 594 0 
3 599 594 592 0 
3 598 603 597 0 
3 596 153 152 0 
3 596 591 590 0 
3 595 590 589 0 
3 594 589 588 0 
3 593 598 592 0 
3 591 152 155 0 
3 591 587 586 0 
3 590 586 585 0 
3 589 585 584 0 
3 583 593 588 0 
3 581 587 155 0 
3 587 581 580 0 
3 586 580 579 0 
3 585 579 577 0 
3 583 584 577 0 
3 576 581 156 0 
3 581 576 575 0 
3 580 575 574 0 
3 579 574 573 0 
3 578 582 577 0 
3 571 576 157 0 
3 576 571 570 0 
3 575 570 569 0 
3 574 569 568 0 
3 572 573 568 0 
3 565 571 160 0 
3 571 565 564 0 
3 570 564 563 0 
3 569 563 562 0 
3 567 568 562 0 
3 158 146 560 0 
3 565 560 559 0 
3 564 559 558 0 
3 563 558 557 0 
3 561 566 562 0 
3 554 560 146 0 
3 560 554 553 0 
3 559 553 552 0 
3 558 552 551 0 
3 556 557 551 0 
3 549 554 145 0 
3 554 549 548 0 
3 553 548 547 0 
3 552 547 546 0 
3 550 555 551 0 
3 147 143 544 0 
3 549 544 543 0 
3 548 543 542 0 
3 547 542 541 0 
3 545 546 541 0 
3 539 544 143 0 
3 544 539 538 0 
3 543 538 537 0 
3 542 537 536 0 
3 536 535 540 0 
3 144 139 534 0 
3 539 534 533 0 
3 538 533 532 0 
3 537 532 531 0 
3 531 530 535 0 
3 529 534 139 0 
3 534 529 528 0 
3 533 528 527 0 
3 532 527 526 0 
3 530 531 526 0 
3 524 529 138 0 
3 529 524 523 0 
3 528 523 522 0 
3 527 522 520 0 
3 520 725 525 0 
3 519 524 140 0 
3 524 519 518 0 
3 523 518 517 0 
3 522 517 516 0 
3 521 725 520 0 
3 519 141 136 0 
3 519 514 513 0 
3 518 513 512 0 
3 517 512 511 0 
3 516 511 510 0 
3 514 136 135 0 
3 514 508 507 0 
3 513 507 506 0 
3 512 506 505 0 
3 511 505 509 0 
3 137 132 502 0 
3 508 502 501 0 
3 507 501 500 0 
3 506 500 499 0 
3 504 509 505 0 
3 502 132 133 0 
3 502 498 497 0 
3 501 497 496 0 
3 500 496 495 0 
3 494 503 499 0 
3 498 133 134 0 
3 498 492 491 0 
3 497 491 490 0 
3 496 490 489 0 
3 495 489 493 0 
3 127 126 486 0 
3 492 486 485 0 
3 491 485 484 0 
3 490 484 482 0 
3 488 493 489 0 
3 128 481 486 0 
3 486 481 480 0 
3 485 480 479 0 
3 484 479 477 0 
3 483 487 482 0 
3 481 128 129 0 
3 481 476 475 0 
3 480 475 474 0 
3 479 474 472 0 
3 478 483 477 0 
3 476 129 131 0 
3 476 471 470 0 
3 475 470 469 0 
3 474 469 467 0 
3 473 478 472 0 
3 471 131 130 0 
3 471 466 465 0 
3 470 465 464 0 
3 469 464 461 0 
3 468 473 467 0 
3 466 130 182 0 
3 466 460 459 0 
3 465 459 458 0 
3 464 458 456 0 
3 462 468 461 0 
3 460 182 183 0 
3 460 455 454 0 
3 459 454 453 0 
3 458 453 450 0 
3 457 463 456 0 
3 455 183 184 0 
3 455 449 448 0 
3 454 448 447 0 
3 453 447 445 0 
3 451 457 450 0 
3 449 184 187 0 
3 449 444 443 0 
3 448 443 442 0 
3 447 442 441 0 
3 446 452 445 0 
3 185 186 438 0 
3 444 438 436 0 
3 443 436 434 0 
3 442 434 433 0 
3 440 446 441 0 
3 439 438 186 0 
3 438 439 437 0 
3 436 437 435 0 
3 434 435 430 0 
3 432 433 430 0 
3 726 718 713 0 
3 726 432 431 0 
3 431 718 726 0 
3 727 707 703 0 
3 727 713 708 0 
3 708 707 727 0 
3 728 696 692 0 
3 728 703 697 0 
3 697 696 728 0 
3 729 723 682 0 
3 729 692 686 0 
3 686 723 729 0 
3 730 671 724 0 
3 730 676 671 0 
3 724 666 730 0 
3 731 682 676 0 
3 676 730 731 0 
3 732 656 655 0 
3 732 661 656 0 
3 655 650 732 0 
3 730 666 661 0 
3 661 732 730 0 
3 733 645 644 0 
3 733 732 650 0 
3 650 645 733 0 
3 734 733 639 0 
3 639 634 734 0 
3 634 633 734 0 
3 735 629 623 0 
3 735 734 628 0 
3 628 629 735 0 
3 736 735 618 0 
3 618 613 736 0 
3 737 603 598 0 
3 737 736 608 0 
3 608 603 737 0 
3 738 737 593 0 
3 738 582 578 0 
3 738 583 582 0 
3 578 739 738 0 
3 739 566 561 0 
3 739 578 572 0 
3 572 567 739 0 
3 567 566 739 0 
3 740 555 550 0 
3 740 561 556 0 
3 556 555 740 0 
3 741 550 545 0 
3 545 742 741 0 
3 545 540 742 0 
3 742 540 535 0 
3 535 743 742 0 
3 535 530 743 0 
3 743 530 525 0 
3 525 744 743 0 
3 525 725 744 0 
3 725 521 744 0 
3 745 510 509 0 
3 745 744 521 0 
3 521 515 745 0 
3 515 510 745 0 
3 746 494 493 0 
3 746 745 504 0 
3 504 503 746 0 
3 503 494 746 0 
3 747 487 483 0 
3 747 746 488 0 
3 488 487 747 0 
3 748 473 468 0 
3 748 747 478 0 
3 478 473 748 0 
3 749 463 457 0 
3 749 748 462 0 
3 462 463 749 0 
3 749 440 432 0 
3 749 452 446 0 
3 749 451 452 0 
3 446 440 749 0 
3 432 726 749 0 
3 457 451 749 0 
3 468 462 748 0 
3 483 478 747 0 
3 493 488 746 0 
3 509 504 745 0 
3 550 741 740 0 
3 561 740 739 0 
3 593 583 738 0 
3 598 593 737 0 
3 613 608 736 0 
3 623 618 735 0 
3 633 628 734 0 
3 644 639 733 0 
3 682 731 729 0 
3 692 729 728 0 
3 703 728 727 0 
3 713 727 726 0 
3 737 750 751 0 
3 751 736 737 0 
3 750 738 739 0 
3 740 752 753 0 
3 734 735 754 0 
3 736 751 754 0 
3 739 753 750 0 
3 753 739 740 0 
3 754 735 736 0 
3 740 741 752 0 
3 737 738 750 0 
3 741 742 755 0 
3 748 749 756 0 
3 726 727 757 0 
3 727 728 758 0 
3 755 752 741 0 
3 742 743 759 0 
3 747 760 761 0 
3 760 747 748 0 
3 758 757 727 0 
3 729 762 758 0 
3 733 734 763 0 
3 759 755 742 0 
3 743 744 764 0 
3 745 765 764 0 
3 746 761 765 0 
3 756 760 748 0 
3 749 726 766 0 
3 758 728 729 0 
3 732 733 767 0 
3 754 763 734 0 
3 764 744 745 0 
3 761 746 747 0 
3 757 766 726 0 
3 731 768 762 0 
3 730 769 768 0 
3 769 730 732 0 
3 764 759 743 0 
3 766 756 749 0 
3 768 731 730 0 
3 763 767 733 0 
3 762 729 731 0 
3 765 745 746 0 
3 767 769 732 0 
3 770 771 429 0 
3 772 770 426 0 
3 773 772 425 0 
3 774 773 424 0 
3 775 774 416 0 
3 776 777 421 0 
3 778 776 422 0 
3 779 778 423 0 
3 780 779 415 0 
3 771 780 428 0 
3 775 781 782 0 
3 411 410 781 0 
3 781 775 411 0 
3 783 784 785 0 
3 783 786 784 0 
3 783 782 786 0 
3 787 788 789 0 
3 787 785 788 0 
3 790 791 792 0 
3 792 793 790 0 
3 794 790 795 0 
3 795 796 794 0 
3 796 797 794 0 
3 421 777 798 0 
3 777 799 798 0 
3 777 794 799 0 
3 420 800 801 0 
3 420 802 800 0 
3 420 798 802 0 
3 414 803 804 0 
3 414 801 803 0 
3 419 805 806 0 
3 419 804 805 0 
3 417 807 808 0 
3 417 806 807 0 
3 427 418 808 0 
3 808 809 427 0 
3 413 427 810 0 
3 810 811 413 0 
3 412 413 812 0 
3 812 813 412 0 
3 410 412 814 0 
3 814 815 410 0 
3 815 816 410 0 
3 816 781 410 0 
3 813 814 412 0 
3 811 812 413 0 
3 809 810 427 0 
3 808 418 417 0 
3 806 417 419 0 
3 804 419 414 0 
3 801 414 420 0 
3 798 420 421 0 
3 797 799 794 0 
3 793 795 790 0 
3 792 791 817 0 
3 818 819 789 0 
3 789 819 787 0 
3 785 787 783 0 
3 782 783 775 0 
3 428 429 771 0 
3 415 428 780 0 
3 423 415 779 0 
3 422 423 778 0 
3 421 422 776 0 
3 416 411 775 0 
3 424 416 774 0 
3 425 424 773 0 
3 426 425 772 0 
3 429 426 770 0 
3 766 820 821 0 
3 821 756 766 0 
3 821 822 756 0 
3 757 823 824 0 
3 824 766 757 0 
3 750 825 826 0 
3 826 751 750 0 
3 826 827 751 0 
3 753 828 829 0 
3 829 750 753 0 
3 756 815 814 0 
3 756 822 815 0 
3 822 816 815 0 
3 814 760 756 0 
3 760 814 813 0 
3 813 761 760 0 
3 813 812 761 0 
3 761 812 811 0 
3 811 765 761 0 
3 811 810 765 0 
3 765 810 809 0 
3 809 764 765 0 
3 809 808 764 0 
3 759 764 808 0 
3 808 807 759 0 
3 755 759 806 0 
3 806 805 755 0 
3 752 755 804 0 
3 804 803 752 0 
3 753 800 802 0 
3 753 752 801 0 
3 801 800 753 0 
3 751 796 795 0 
3 751 827 796 0 
3 827 797 796 0 
3 795 754 751 0 
3 754 795 793 0 
3 793 763 754 0 
3 793 792 763 0 
3 763 792 817 0 
3 817 767 763 0 
3 817 830 767 0 
3 769 831 832 0 
3 769 767 830 0 
3 830 831 769 0 
3 769 833 834 0 
3 769 835 836 0 
3 836 833 769 0 
3 768 834 818 0 
3 818 762 768 0 
3 758 762 789 0 
3 789 788 758 0 
3 757 784 786 0 
3 757 758 785 0 
3 785 784 757 0 
3 786 823 757 0 
3 788 785 758 0 
3 818 789 762 0 
3 834 768 769 0 
3 832 835 769 0 
3 802 828 753 0 
3 803 801 752 0 
3 805 804 755 0 
3 807 806 759 0 
3 829 825 750 0 
3 824 820 766 0 
3 837 819 818 0 
3 818 834 837 0 
3 837 833 836 0 
3 837 835 832 0 
3 837 830 817 0 
3 837 831 830 0 
3 817 791 837 0 
3 832 831 837 0 
3 836 835 837 0 
3 834 833 837 0 
3 837 787 819 0 
3 837 783 787 0 
3 837 775 783 0 
3 837 774 775 0 
3 837 773 774 0 
3 837 772 773 0 
3 837 770 772 0 
3 837 771 770 0 
3 837 780 771 0 
3 837 779 780 0 
3 837 778 779 0 
3 837 776 778 0 
3 837 777 776 0 
3 837 794 777 0 
3 837 790 794 0 
3 837 791 790 0 
3 798 829 828 0 
3 798 799 825 0 
3 799 826 825 0 
3 799 797 827 0 
3 827 826 799 0 
3 825 829 798 0 
3 828 802 798 0 
3 782 824 823 0 
3 782 781 820 0 
3 781 821 820 0 
3 781 816 822 0 
3 822 821 781 0 
3 820 824 782 0 
3 823 786 782 0 
