ply
format ascii 1.0
comment VCGLIB generated
element vertex 188
property float x
property float y
property float z
property float nx
property float ny
property float nz
property int flags
element face 384
property list uchar int vertex_indices
property int flags
end_header
-122.8042 -1.236068 -2.4 0.6354007 0.2064539 -0.7440718 0 
-123 0 -2.4 0.6681012 8.02107e-10 -0.7440704 0 
-123 0 2.4 0.6681012 0 0.7440704 0 
-122.2361 -2.351141 -2.4 0.5405044 0.3927 -0.744071 0 
-122.8042 -1.236068 2.4 0.6354007 0.2064539 0.7440718 0 
-121.3511 -3.236068 -2.4 0.3926996 0.5405043 -0.7440713 0 
-122.2361 -2.351141 2.4 0.5405046 0.3927 0.7440709 0 
-120.2361 -3.804226 -2.4 0.2064542 0.6354012 -0.7440712 0 
-121.3511 -3.236068 2.4 0.3926995 0.5405044 0.7440714 0 
-119 -4 -2.4 -8.021065e-09 0.6681005 -0.744071 0 
-120.2361 -3.804226 2.4 0.2064542 0.6354012 0.7440712 0 
-117.7639 -3.804226 -2.4 -0.2064522 0.6353949 -0.7440771 0 
-119 -4 2.4 9.625279e-09 0.6681005 0.7440711 0 
-116.6489 -3.236068 -2.4 -0.3926996 0.5405043 -0.7440713 0 
-117.7639 -3.804226 2.4 -0.2064542 0.6354012 0.7440712 0 
-115.7639 -2.351141 -2.4 -0.5405047 0.3927 -0.7440709 0 
-116.6489 -3.236068 2.4 -0.3926996 0.5405043 0.7440713 0 
-115.1958 -1.236068 -2.4 -0.6354007 0.2064539 -0.7440718 0 
-115.7639 -2.351141 2.4 -0.5405045 0.3927001 0.7440709 0 
-115 0 -2.4 -0.6681012 -8.02107e-10 -0.7440704 0 
-115.1958 -1.236068 2.4 -0.6354007 0.2064539 0.7440718 0 
-115.1958 1.236068 -2.4 -0.6354005 -0.2064539 -0.744072 0 
-115 0 2.4 -0.6680997 0 0.7440718 0 
-115.7639 2.351141 -2.4 -0.5405045 -0.3927001 -0.7440709 0 
-115.1958 1.236068 2.4 -0.6353938 -0.2064517 0.7440782 0 
-116.6489 3.236068 -2.4 -0.3926996 -0.5405043 -0.7440713 0 
-115.7639 2.351141 2.4 -0.5405047 -0.3927 0.7440709 0 
-117.7639 3.804226 -2.4 -0.2064542 -0.6354012 -0.7440712 0 
-116.6489 3.236068 2.4 -0.3926995 -0.5405044 0.7440714 0 
-119 4 -2.4 8.021065e-09 -0.6681005 -0.744071 0 
-117.7639 3.804226 2.4 -0.2064542 -0.6354012 0.7440712 0 
-120.2361 3.804226 -2.4 0.2064542 -0.6354012 -0.7440712 0 
-119 4 2.4 -9.625277e-09 -0.6681004 0.7440712 0 
-121.3511 3.236068 -2.4 0.3926996 -0.5405043 -0.7440713 0 
-120.2361 3.804226 2.4 0.2064542 -0.6354012 0.7440712 0 
-122.2361 2.351141 -2.4 0.5405046 -0.3927 -0.7440709 0 
-121.3511 3.236068 2.4 0.3926996 -0.5405043 0.7440713 0 
-122.8042 1.236068 -2.4 0.6354007 -0.2064539 -0.7440718 0 
-122.2361 2.351141 2.4 0.5405044 -0.3927 0.744071 0 
-122.8042 1.236068 2.4 0.6354007 -0.2064539 0.7440718 0 
122.1214 15.69256 2.4 0.142004 0.7139015 0.6856964 0 
119 16 2.4 0.03522208 0.7169608 0.6962231 0 
119 4 2.4 -9.625279e-09 -0.6681005 0.7440711 0 
3.804226 1.236068 2.4 -0.6354007 -0.2064542 0.7440717 0 
115.7639 2.351141 2.4 0.5405045 -0.3927001 0.7440709 0 
116.6489 3.236068 2.4 0.3926996 -0.5405043 0.7440713 0 
4 0 2.4 -0.6680998 6.416847e-09 0.7440717 0 
115.1958 1.236068 2.4 0.6354003 -0.2064538 0.7440721 0 
0 -4 2.4 6.416848e-09 0.6681 0.7440715 0 
125.1229 14.78207 2.4 0.2785504 0.6724805 0.6856965 0 
120.2361 3.804226 2.4 -0.2064542 -0.6354012 0.7440712 0 
121.3511 3.236068 2.4 -0.3926995 -0.5405044 0.7440714 0 
1.236068 3.804226 2.4 -0.2064544 -0.6354012 0.7440712 0 
2.351141 3.236068 2.4 -0.3926995 -0.5405045 0.7440712 0 
-119 -16 2.4 -0.03522193 -0.7169577 0.6962263 0 
115.1958 -1.236068 2.4 0.6353938 0.2064517 0.7440782 0 
3.236068 2.351141 2.4 -0.5405045 -0.3926995 0.7440712 0 
117.7639 3.804226 2.4 0.2064542 -0.6354012 0.7440712 0 
-1.236068 3.804226 2.4 0.2064544 -0.6354012 0.7440712 0 
0 4 2.4 -6.416852e-09 -0.6681004 0.7440712 0 
-3.236068 2.351141 2.4 0.5405045 -0.3926995 0.7440712 0 
-2.351141 3.236068 2.4 0.3926995 -0.5405045 0.7440712 0 
-130.3137 11.31371 2.4 -0.5146943 0.5146943 0.6856965 0 
-132.3035 8.889124 2.4 -0.6052163 0.4043932 0.6856964 0 
-122.1214 -15.69256 2.4 -0.142004 -0.7139015 0.6856964 0 
2.351141 -3.236068 2.4 -0.3926995 0.5405045 0.7440712 0 
1.236068 -3.804226 2.4 -0.2064544 0.6354012 0.7440712 0 
122.1214 -15.69256 2.4 0.142004 -0.7139015 0.6856964 0 
120.2361 -3.804226 2.4 -0.2064542 0.6354012 0.7440712 0 
119 -4 2.4 9.625279e-09 0.6681005 0.7440711 0 
-3.804226 1.236068 2.4 0.6354012 -0.2064544 0.7440712 0 
-4 0 2.4 0.6681 -6.416848e-09 0.7440715 0 
-3.236068 -2.351141 2.4 0.5405045 0.3926995 0.7440712 0 
-3.804226 -1.236068 2.4 0.6354012 0.2064544 0.7440712 0 
-122.1214 15.69256 2.4 -0.142004 0.7139015 0.6856964 0 
-127.8891 13.30351 2.4 -0.4043928 0.6052164 0.6856965 0 
-133.7821 6.122935 2.4 -0.6724803 0.2785507 0.6856965 0 
-130.3137 -11.31371 2.4 -0.514694 -0.5146943 0.6856966 0 
-127.8891 -13.30351 2.4 -0.4043927 -0.6052165 0.6856964 0 
-125.1229 -14.78207 2.4 -0.2785504 -0.6724805 0.6856965 0 
119 -16 2.4 0.03522186 -0.7169564 0.6962277 0 
130.3137 -11.31371 2.4 0.5146943 -0.5146943 0.6856965 0 
132.3035 -8.889124 2.4 0.6052163 -0.4043932 0.6856964 0 
122.2361 -2.351141 2.4 -0.5405044 0.3927 0.744071 0 
130.3137 11.31371 2.4 0.514694 0.5146943 0.6856966 0 
127.8891 13.30351 2.4 0.4043927 0.6052165 0.6856964 0 
-2.351141 -3.236068 2.4 0.3926995 0.5405045 0.7440712 0 
-1.236068 -3.804226 2.4 0.2064544 0.6354013 0.7440711 0 
-119 16 2.4 -0.03522186 0.7169564 0.6962277 0 
-125.1229 14.78207 2.4 -0.2785504 0.6724805 0.6856965 0 
-133.7821 -6.122935 2.4 -0.6724803 -0.2785507 0.6856965 0 
-132.3035 -8.889124 2.4 -0.6052163 -0.4043932 0.6856964 0 
3.236068 -2.351141 2.4 -0.5405045 0.3926995 0.7440712 0 
115 0 2.4 0.6681012 0 0.7440704 0 
116.6489 -3.236068 2.4 0.3926995 0.5405044 0.7440714 0 
125.1229 -14.78207 2.4 0.2785504 -0.6724805 0.6856965 0 
121.3511 -3.236068 2.4 -0.3926996 0.5405043 0.7440713 0 
127.8891 -13.30351 2.4 0.4043928 -0.6052164 0.6856965 0 
133.7821 -6.122935 2.4 0.6724803 -0.2785507 0.6856965 0 
122.8042 -1.236068 2.4 -0.6354007 0.2064539 0.7440718 0 
133.7821 6.122935 2.4 0.6724803 0.2785507 0.6856965 0 
132.3035 8.889124 2.4 0.6052163 0.4043932 0.6856964 0 
122.2361 2.351141 2.4 -0.5405046 -0.3927 0.7440709 0 
-134.6926 3.121445 2.4 -0.7139016 0.1420037 0.6856963 0 
-135 0 2.4 -0.7278875 0 0.6856966 0 
-134.6926 -3.121445 2.4 -0.7139016 -0.1420037 0.6856963 0 
3.804226 -1.236068 2.4 -0.6354012 0.2064544 0.7440712 0 
115.7639 -2.351141 2.4 0.5405047 0.3927 0.7440709 0 
117.7639 -3.804226 2.4 0.2064542 0.6354012 0.7440712 0 
134.6926 3.121445 2.4 0.7139016 0.1420037 0.6856963 0 
122.8042 1.236068 2.4 -0.6354007 -0.2064539 0.7440718 0 
123 0 2.4 -0.6681012 0 0.7440704 0 
134.6926 -3.121445 2.4 0.7139016 -0.1420037 0.6856963 0 
135 0 2.4 0.7278875 0 0.6856966 0 
119 16 -2.4 0.03522188 0.7169568 -0.6962273 0 
0 4 -2.4 4.812635e-09 -0.6681001 -0.7440715 0 
116.6489 3.236068 -2.4 0.3926996 -0.5405043 -0.7440713 0 
115.7639 2.351141 -2.4 0.5405047 -0.3927 -0.7440709 0 
122.1214 15.69256 -2.4 0.142004 0.7139015 -0.6856964 0 
120.2361 3.804226 -2.4 -0.2064542 -0.6354014 -0.7440711 0 
119 4 -2.4 8.021065e-09 -0.6681005 -0.744071 0 
-130.3137 11.31371 -2.4 -0.514694 0.5146943 -0.6856966 0 
115.1958 1.236068 -2.4 0.6353939 -0.2064517 -0.7440782 0 
3.236068 2.351141 -2.4 -0.5405045 -0.3926995 -0.7440712 0 
2.351141 3.236068 -2.4 -0.3926995 -0.5405045 -0.7440712 0 
115 0 -2.4 0.6680997 8.021053e-10 -0.7440718 0 
4 0 -2.4 -0.6681001 -4.812636e-09 -0.7440714 0 
125.1229 14.78207 -2.4 0.2785504 0.6724805 -0.6856965 0 
127.8891 13.30351 -2.4 0.4043927 0.6052165 -0.6856964 0 
121.3511 3.236068 -2.4 -0.3926996 -0.5405043 -0.7440713 0 
-133.7821 6.122935 -2.4 -0.6724805 0.2785507 -0.6856964 0 
-132.3035 8.889124 -2.4 -0.6052163 0.4043932 -0.6856964 0 
-122.1214 15.69256 -2.4 -0.1420039 0.7139015 -0.6856964 0 
-119 16 -2.4 -0.03522186 0.7169563 -0.6962278 0 
3.804226 1.236068 -2.4 -0.6354012 -0.2064544 -0.7440712 0 
3.804226 -1.236068 -2.4 -0.6354012 0.2064544 -0.7440712 0 
117.7639 3.804226 -2.4 0.2064542 -0.6354012 -0.7440712 0 
130.3137 11.31371 -2.4 0.5146943 0.5146943 -0.6856965 0 
122.2361 2.351141 -2.4 -0.5405044 -0.3927 -0.744071 0 
-3.236068 2.351141 -2.4 0.5405045 -0.3926995 -0.7440712 0 
-3.804226 1.236068 -2.4 0.6354012 -0.2064544 -0.7440712 0 
-1.236068 3.804226 -2.4 0.2064523 -0.6353949 -0.7440771 0 
-2.351141 3.236068 -2.4 0.3926995 -0.5405045 -0.7440712 0 
122.1214 -15.69256 -2.4 0.1420039 -0.7139015 -0.6856964 0 
119 -16 -2.4 0.03522186 -0.7169563 -0.6962278 0 
119 -4 -2.4 -8.021065e-09 0.6681005 -0.744071 0 
-127.8891 13.30351 -2.4 -0.4043927 0.6052165 -0.6856964 0 
-125.1229 14.78207 -2.4 -0.2785507 0.6724805 -0.6856964 0 
0 -4 -2.4 -4.812638e-09 0.6681005 -0.7440711 0 
1.236068 -3.804226 -2.4 -0.2064544 0.6354013 -0.7440711 0 
133.7821 6.122935 -2.4 0.6724805 0.2785507 -0.6856964 0 
122.8042 1.236068 -2.4 -0.6354007 -0.2064539 -0.7440718 0 
130.3137 -11.31371 -2.4 0.514694 -0.5146943 -0.6856966 0 
121.3511 -3.236068 -2.4 -0.3926996 0.5405043 -0.7440713 0 
122.2361 -2.351141 -2.4 -0.5405046 0.3927 -0.7440709 0 
120.2361 -3.804226 -2.4 -0.2064542 0.6354012 -0.7440712 0 
125.1229 -14.78207 -2.4 0.2785507 -0.6724805 -0.6856964 0 
-119 -16 -2.4 -0.03522206 -0.7169604 -0.6962236 0 
-1.236068 -3.804226 -2.4 0.2064544 0.6354012 -0.7440712 0 
3.236068 -2.351141 -2.4 -0.5405045 0.3926995 -0.7440712 0 
2.351141 -3.236068 -2.4 -0.3926995 0.5405045 -0.7440712 0 
132.3035 8.889124 -2.4 0.6052163 0.4043932 -0.6856964 0 
-4 0 -2.4 0.6681005 4.812638e-09 -0.7440711 0 
133.7821 -6.122935 -2.4 0.6724805 -0.2785507 -0.6856964 0 
132.3035 -8.889124 -2.4 0.6052163 -0.4043932 -0.6856964 0 
117.7639 -3.804226 -2.4 0.2064542 0.6354012 -0.7440712 0 
115.1958 -1.236068 -2.4 0.6354005 0.2064539 -0.744072 0 
115.7639 -2.351141 -2.4 0.5405045 0.3927001 -0.7440709 0 
-122.1214 -15.69256 -2.4 -0.142004 -0.7139015 -0.6856964 0 
-134.6926 3.121445 -2.4 -0.7139016 0.1420037 -0.6856963 0 
134.6926 3.121445 -2.4 0.7139016 0.1420037 -0.6856963 0 
135 0 -2.4 0.7278875 0 -0.6856966 0 
123 0 -2.4 -0.6681012 -8.02107e-10 -0.7440704 0 
134.6926 -3.121445 -2.4 0.7139016 -0.1420037 -0.6856963 0 
122.8042 -1.236068 -2.4 -0.6354007 0.2064539 -0.7440718 0 
127.8891 -13.30351 -2.4 0.4043927 -0.6052165 -0.6856964 0 
116.6489 -3.236068 -2.4 0.3926996 0.5405043 -0.7440713 0 
-2.351141 -3.236068 -2.4 0.3926995 0.5405045 -0.7440712 0 
-135 0 -2.4 -0.7278875 0 -0.6856966 0 
1.236068 3.804226 -2.4 -0.2064544 -0.6354012 -0.7440712 0 
-3.236068 -2.351141 -2.4 0.5405045 0.3926995 -0.7440712 0 
-125.1229 -14.78207 -2.4 -0.2785504 -0.6724805 -0.6856965 0 
-127.8891 -13.30351 -2.4 -0.4043927 -0.6052165 -0.6856964 0 
-130.3137 -11.31371 -2.4 -0.5146943 -0.5146943 -0.6856965 0 
-3.804226 -1.236068 -2.4 0.6354012 0.2064544 -0.7440712 0 
-133.7821 -6.122935 -2.4 -0.6724805 -0.2785507 -0.6856964 0 
-132.3035 -8.889124 -2.4 -0.6052163 -0.4043932 -0.6856964 0 
-134.6926 -3.121445 -2.4 -0.7139016 -0.1420037 -0.6856963 0 
3 0 1 2 0 
3 3 0 4 0 
3 5 3 6 0 
3 7 5 8 0 
3 9 7 10 0 
3 11 9 12 0 
3 13 11 14 0 
3 15 13 16 0 
3 17 15 18 0 
3 19 17 20 0 
3 21 19 22 0 
3 23 21 24 0 
3 25 23 26 0 
3 27 25 28 0 
3 29 27 30 0 
3 31 29 32 0 
3 33 31 34 0 
3 35 33 36 0 
3 37 35 38 0 
3 1 37 39 0 
3 39 2 1 0 
3 38 39 37 0 
3 36 38 35 0 
3 34 36 33 0 
3 32 34 31 0 
3 30 32 29 0 
3 28 30 27 0 
3 26 28 25 0 
3 24 26 23 0 
3 22 24 21 0 
3 20 22 19 0 
3 18 20 17 0 
3 16 18 15 0 
3 14 16 13 0 
3 12 14 11 0 
3 10 12 9 0 
3 8 10 7 0 
3 6 8 5 0 
3 4 6 3 0 
3 2 4 0 0 
3 40 41 42 0 
3 43 44 45 0 
3 43 46 47 0 
3 48 18 16 0 
3 49 50 51 0 
3 50 49 40 0 
3 47 44 43 0 
3 41 52 53 0 
3 54 55 48 0 
3 42 50 40 0 
3 45 41 43 0 
3 53 56 41 0 
3 48 20 18 0 
3 41 57 42 0 
3 56 43 41 0 
3 24 58 59 0 
3 24 60 61 0 
3 62 63 38 0 
3 64 54 12 0 
3 16 54 48 0 
3 55 65 66 0 
3 67 68 69 0 
3 45 57 41 0 
3 59 41 24 0 
3 24 70 60 0 
3 24 22 71 0 
3 22 72 73 0 
3 74 34 32 0 
3 36 75 62 0 
3 76 39 38 0 
3 77 78 8 0 
3 10 79 64 0 
3 66 48 55 0 
3 16 14 54 0 
3 69 80 67 0 
3 81 82 83 0 
3 84 85 51 0 
3 59 52 41 0 
3 71 70 24 0 
3 22 86 72 0 
3 22 48 87 0 
3 88 32 30 0 
3 32 88 74 0 
3 89 75 36 0 
3 38 63 76 0 
3 90 91 6 0 
3 6 91 77 0 
3 79 10 8 0 
3 54 14 12 0 
3 55 92 65 0 
3 55 93 46 0 
3 54 80 94 0 
3 67 95 68 0 
3 96 97 81 0 
3 98 99 83 0 
3 100 101 102 0 
3 102 101 84 0 
3 61 58 24 0 
3 87 86 22 0 
3 41 88 28 0 
3 74 89 34 0 
3 38 36 62 0 
3 103 104 2 0 
3 105 4 2 0 
3 8 6 77 0 
3 12 10 64 0 
3 55 106 92 0 
3 46 106 55 0 
3 94 107 54 0 
3 69 108 80 0 
3 95 97 96 0 
3 83 82 98 0 
3 109 110 111 0 
3 51 102 84 0 
3 73 71 22 0 
3 28 26 41 0 
3 36 34 89 0 
3 39 76 103 0 
3 2 104 105 0 
3 8 78 79 0 
3 93 47 46 0 
3 108 94 80 0 
3 83 96 81 0 
3 112 113 111 0 
3 111 113 109 0 
3 51 85 49 0 
3 30 28 88 0 
3 105 90 4 0 
3 96 68 95 0 
3 99 98 112 0 
3 102 110 100 0 
3 2 39 103 0 
3 48 22 20 0 
3 111 99 112 0 
3 26 24 41 0 
3 107 55 54 0 
3 6 4 90 0 
3 109 100 110 0 
3 21 114 115 0 
3 115 114 116 0 
3 116 117 115 0 
3 118 119 120 0 
3 121 33 35 0 
3 122 123 124 0 
3 122 125 126 0 
3 115 19 21 0 
3 120 114 118 0 
3 127 128 129 0 
3 130 131 35 0 
3 35 131 121 0 
3 132 133 29 0 
3 122 134 123 0 
3 125 135 126 0 
3 114 136 116 0 
3 129 119 127 0 
3 137 138 129 0 
3 9 139 140 0 
3 9 141 142 0 
3 143 144 145 0 
3 121 146 33 0 
3 147 31 33 0 
3 31 147 132 0 
3 133 25 27 0 
3 126 134 122 0 
3 125 148 149 0 
3 115 17 19 0 
3 118 127 119 0 
3 129 128 137 0 
3 150 151 138 0 
3 115 11 13 0 
3 142 139 9 0 
3 11 115 141 0 
3 152 153 154 0 
3 155 156 143 0 
3 157 158 148 0 
3 33 146 147 0 
3 27 29 133 0 
3 114 21 23 0 
3 125 159 135 0 
3 149 160 125 0 
3 160 159 125 0 
3 120 136 114 0 
3 138 161 150 0 
3 13 15 115 0 
3 15 17 115 0 
3 141 9 11 0 
3 140 162 9 0 
3 163 164 154 0 
3 154 164 152 0 
3 144 165 145 0 
3 157 166 167 0 
3 148 166 157 0 
3 148 125 166 0 
3 168 7 9 0 
3 169 37 1 0 
3 29 31 132 0 
3 23 133 114 0 
3 23 25 133 0 
3 137 161 138 0 
3 170 171 172 0 
3 173 174 172 0 
3 152 175 153 0 
3 156 155 153 0 
3 144 176 165 0 
3 167 144 157 0 
3 167 176 144 0 
3 157 177 158 0 
3 157 9 162 0 
3 9 157 168 0 
3 1 178 169 0 
3 124 179 122 0 
3 151 150 170 0 
3 172 171 173 0 
3 153 175 156 0 
3 157 180 177 0 
3 168 181 7 0 
3 181 182 5 0 
3 183 3 5 0 
3 35 37 130 0 
3 117 122 115 0 
3 173 163 174 0 
3 145 155 143 0 
3 157 184 180 0 
3 5 7 181 0 
3 5 182 183 0 
3 185 0 3 0 
3 179 115 122 0 
3 154 174 163 0 
3 162 184 157 0 
3 3 186 185 0 
3 172 151 170 0 
3 183 186 3 0 
3 187 178 1 0 
3 0 185 187 0 
3 1 0 187 0 
3 169 130 37 0 
3 144 80 54 0 
3 54 157 144 0 
3 41 114 133 0 
3 133 88 41 0 
3 88 133 132 0 
3 74 132 147 0 
3 89 147 146 0 
3 75 146 121 0 
3 62 121 131 0 
3 63 131 130 0 
3 76 130 169 0 
3 103 169 178 0 
3 104 178 187 0 
3 105 187 185 0 
3 90 185 186 0 
3 91 186 183 0 
3 77 183 182 0 
3 78 182 181 0 
3 79 181 168 0 
3 64 168 157 0 
3 157 54 64 0 
3 168 64 79 0 
3 181 79 78 0 
3 182 78 77 0 
3 183 77 91 0 
3 186 91 90 0 
3 185 90 105 0 
3 187 105 104 0 
3 178 104 103 0 
3 169 103 76 0 
3 130 76 63 0 
3 131 63 62 0 
3 121 62 75 0 
3 146 75 89 0 
3 147 89 74 0 
3 132 74 88 0 
3 80 144 143 0 
3 67 143 156 0 
3 95 156 175 0 
3 97 175 152 0 
3 81 152 164 0 
3 82 164 163 0 
3 98 163 173 0 
3 112 173 171 0 
3 113 171 170 0 
3 109 170 150 0 
3 100 150 161 0 
3 101 161 137 0 
3 84 137 128 0 
3 85 128 127 0 
3 49 127 118 0 
3 40 118 114 0 
3 114 41 40 0 
3 118 40 49 0 
3 127 49 85 0 
3 128 85 84 0 
3 137 84 101 0 
3 161 101 100 0 
3 150 100 109 0 
3 170 109 113 0 
3 171 113 112 0 
3 173 112 98 0 
3 163 98 82 0 
3 164 82 81 0 
3 152 81 97 0 
3 175 97 95 0 
3 156 95 67 0 
3 143 67 80 0 
3 166 125 93 0 
3 167 166 55 0 
3 176 167 107 0 
3 165 176 94 0 
3 145 165 108 0 
3 155 145 69 0 
3 153 155 68 0 
3 154 153 96 0 
3 174 154 83 0 
3 172 174 99 0 
3 151 172 111 0 
3 138 151 110 0 
3 129 138 102 0 
3 119 129 51 0 
3 120 119 50 0 
3 136 120 42 0 
3 116 136 57 0 
3 117 116 45 0 
3 122 117 44 0 
3 125 122 47 0 
3 47 93 125 0 
3 44 47 122 0 
3 45 44 117 0 
3 57 45 116 0 
3 42 57 136 0 
3 50 42 120 0 
3 51 50 119 0 
3 102 51 129 0 
3 110 102 138 0 
3 111 110 151 0 
3 99 111 172 0 
3 83 99 174 0 
3 96 83 154 0 
3 68 96 153 0 
3 69 68 155 0 
3 108 69 145 0 
3 94 108 165 0 
3 107 94 176 0 
3 55 107 167 0 
3 93 55 166 0 
3 184 162 71 0 
3 180 184 73 0 
3 177 180 72 0 
3 158 177 86 0 
3 148 158 87 0 
3 149 148 48 0 
3 160 149 66 0 
3 159 160 65 0 
3 135 159 92 0 
3 126 135 106 0 
3 134 126 46 0 
3 123 134 43 0 
3 124 123 56 0 
3 179 124 53 0 
3 115 179 52 0 
3 141 115 59 0 
3 142 141 58 0 
3 139 142 61 0 
3 140 139 60 0 
3 162 140 70 0 
3 70 71 162 0 
3 60 70 140 0 
3 61 60 139 0 
3 58 61 142 0 
3 59 58 141 0 
3 52 59 115 0 
3 53 52 179 0 
3 56 53 124 0 
3 43 56 123 0 
3 46 43 134 0 
3 106 46 126 0 
3 92 106 135 0 
3 65 92 159 0 
3 66 65 160 0 
3 48 66 149 0 
3 87 48 148 0 
3 86 87 158 0 
3 72 86 177 0 
3 73 72 180 0 
3 71 73 184 0 
